<svg class="animated" id="freepik_stories-dark-analytics" xmlns="http://www.w3.org/2000/svg" viewBox="0 0 500 500" version="1.1" xmlns:xlink="http://www.w3.org/1999/xlink" xmlns:svgjs="http://svgjs.com/svgjs"><style>svg#freepik_stories-dark-analytics:not(.animated) .animable {opacity: 0;}svg#freepik_stories-dark-analytics.animated #freepik--Floor--inject-73 {animation: 1s 1 forwards cubic-bezier(.36,-0.01,.5,1.38) lightSpeedLeft;animation-delay: 0s;}svg#freepik_stories-dark-analytics.animated #freepik--Shadows--inject-73 {animation: 1s 1 forwards cubic-bezier(.36,-0.01,.5,1.38) slideLeft;animation-delay: 0s;}svg#freepik_stories-dark-analytics.animated #freepik--Gears--inject-73 {animation: 1s 1 forwards cubic-bezier(.36,-0.01,.5,1.38) zoomOut;animation-delay: 0s;}svg#freepik_stories-dark-analytics.animated #freepik--Plants--inject-73 {animation: 1s 1 forwards cubic-bezier(.36,-0.01,.5,1.38) fadeIn;animation-delay: 0s;}svg#freepik_stories-dark-analytics.animated #freepik--chart-3--inject-73 {animation: 1s 1 forwards cubic-bezier(.36,-0.01,.5,1.38) fadeIn;animation-delay: 0s;}svg#freepik_stories-dark-analytics.animated #freepik--chart-2--inject-73 {animation: 1s 1 forwards cubic-bezier(.36,-0.01,.5,1.38) slideUp;animation-delay: 0s;}svg#freepik_stories-dark-analytics.animated #freepik--chart-1--inject-73 {animation: 1s 1 forwards cubic-bezier(.36,-0.01,.5,1.38) slideUp;animation-delay: 0s;}svg#freepik_stories-dark-analytics.animated #freepik--Character--inject-73 {animation: 1s 1 forwards cubic-bezier(.36,-0.01,.5,1.38) fadeIn;animation-delay: 0s;}svg#freepik_stories-dark-analytics.animated #freepik--magnifying-glass--inject-73 {animation: 1s 1 forwards cubic-bezier(.36,-0.01,.5,1.38) lightSpeedLeft;animation-delay: 0s;}            @keyframes lightSpeedLeft {              from {                transform: translate3d(-50%, 0, 0) skewX(20deg);                opacity: 0;              }              60% {                transform: skewX(-10deg);                opacity: 1;              }              80% {                transform: skewX(2deg);              }              to {                opacity: 1;                transform: translate3d(0, 0, 0);              }            }                    @keyframes slideLeft {                0% {                    opacity: 0;                    transform: translateX(-30px);                }                100% {                    opacity: 1;                    transform: translateX(0);                }            }                    @keyframes zoomOut {                0% {                    opacity: 0;                    transform: scale(1.5);                }                100% {                    opacity: 1;                    transform: scale(1);                }            }                    @keyframes fadeIn {                0% {                    opacity: 0;                }                100% {                    opacity: 1;                }            }                    @keyframes slideUp {                0% {                    opacity: 0;                    transform: translateY(30px);                }                100% {                    opacity: 1;                    transform: inherit;                }            }        .animator-hidden { display: none; }</style><g id="freepik--Floor--inject-73" class="animable" style="transform-origin: 250px 368.43px;"><ellipse id="freepik--floor--inject-73" cx="250" cy="368.43" rx="221.46" ry="115.3" style="fill: rgb(245, 245, 245); transform-origin: 250px 368.43px;" class="animable"></ellipse></g><g id="freepik--Shadows--inject-73" class="animable" style="transform-origin: 259.317px 368.581px;"><path id="freepik--Shadow--inject-73" d="M295.49,370.26c-20.74-12-54.35-12-75.09,0-17.57,10.15-20.24,25.64-8,37.41a8.48,8.48,0,0,0-2,.81l-65.5,37.81c-2.78,1.61-2.78,4.21,0,5.82l4.1,2.36a10.33,10.33,0,0,0,9.9-.27l61-39.93a5,5,0,0,0,.7-.55c20.75,11.86,54.22,11.82,74.89-.11S316.22,382.23,295.49,370.26Z" style="fill: rgb(224, 224, 224); transform-origin: 226.915px 408.431px;" class="animable"></path><ellipse id="freepik--shadow--inject-73" cx="404.1" cy="367.8" rx="54.19" ry="31.29" style="fill: rgb(224, 224, 224); transform-origin: 404.1px 367.8px;" class="animable"></ellipse><path id="freepik--shadow--inject-73" d="M77.49,422.63l227.2-131.12a1.32,1.32,0,0,0,0-2.5l-11.93-6.93a4.74,4.74,0,0,0-4.32,0L61.24,413.25a1.32,1.32,0,0,0,0,2.5l11.92,6.88A4.79,4.79,0,0,0,77.49,422.63Z" style="fill: rgb(224, 224, 224); transform-origin: 182.965px 352.353px;" class="animable"></path></g><g id="freepik--Gears--inject-73" class="animable" style="transform-origin: 111.583px 88.5743px;"><g id="freepik--gears--inject-73" class="animable" style="transform-origin: 111.583px 88.5743px;"><path d="M157.34,56.78h0a.66.66,0,0,0-.7.09l-1.42,1-.29.89a1.69,1.69,0,0,0,.46,1.6,5.88,5.88,0,0,1,.7.78,1,1,0,0,0,1.37.25L160.77,59a.65.65,0,0,1,.68-.1Zm-4.72,12.67c-.59-2.73-2.4-4-4.66-3.76a6.89,6.89,0,0,1,.53,1.59c.93,4.33-1.59,10.62-5.6,14a8.33,8.33,0,0,1-4.28,2.12c1.48,2.87,4.94,3,8.41,0C151,80.07,153.54,73.77,152.62,69.45Zm-.68-18.63h0a.78.78,0,0,0-.27-.09l-2.58-.48a1.38,1.38,0,0,0-1.42.73l-2.22,4.68a2.19,2.19,0,0,1-.52.64h0a2.7,2.7,0,0,1-.4.29l.85,2.47a.87.87,0,0,0,1.23.5,12.38,12.38,0,0,1,1.55-.58,2.73,2.73,0,0,0,.9-.51,2.19,2.19,0,0,0,.52-.64l2.21-4.68a1.39,1.39,0,0,1,1.42-.73l2.59.47.26.08Zm-5.42,44.65a.67.67,0,0,1-.25-.38l-1-2.83a.86.86,0,0,0-1.23-.5,12.92,12.92,0,0,1-1.56.58,1.71,1.71,0,0,0-.48.22l.12.37a.77.77,0,0,0,.35.43h0Zm-6.59-41.85a.67.67,0,0,0-.28-.06.78.78,0,0,0-.47.2l-3.71,3.17a.93.93,0,0,0-.14.14l-.1.12a2.4,2.4,0,0,0-.31.62s0,.1,0,.15h0a1.71,1.71,0,0,0-.08.62l.38,3.64a2.89,2.89,0,0,1-.53,1.78A29.13,29.13,0,0,0,133,66.43a1.91,1.91,0,0,1-.82.68,2.19,2.19,0,0,1-.33.12l-.16,0a.55.55,0,0,1-.22,0l-2.47,0h-.06l-.2,0-.18,0h0l-.2.09a1.56,1.56,0,0,0-.34.23,1.58,1.58,0,0,0-.38.52l-2.1,5.28a1,1,0,0,0,.44,1.23l2.8,1.47a1.32,1.32,0,0,1,.09.71,21.81,21.81,0,0,0-.33,2.49,3.11,3.11,0,0,1-.76,1.71l0,0-3.23,3.22a1.46,1.46,0,0,0-.16.19s0,0,0,0a1,1,0,0,0-.12.23A2,2,0,0,0,124,86l.8,3.67a.71.71,0,0,0,.31.49l4.11,2.16a.76.76,0,0,1-.3-.48l-.79-3.68a1.7,1.7,0,0,1,0-.71,2,2,0,0,1,.5-1l3.22-3.22,0,0a3.12,3.12,0,0,0,.77-1.72A20,20,0,0,1,133,79a1.27,1.27,0,0,0-.74-1.35l-2-.76a1,1,0,0,1-.57-1.29l2.11-5.29a1.31,1.31,0,0,1,.37-.51,1.53,1.53,0,0,1,1-.41l2.47,0a1.64,1.64,0,0,0,.7-.17,1.93,1.93,0,0,0,.82-.69c.53-.83,1.09-1.65,1.68-2.42a2.86,2.86,0,0,0,.53-1.79l-.38-3.63a1.82,1.82,0,0,1,.07-.64,2.12,2.12,0,0,1,.6-1l3.71-3.16a.65.65,0,0,1,.75-.14Zm-4.19,38.92a1.69,1.69,0,0,0-.47-1.6,7.31,7.31,0,0,1-.68-.78,1,1,0,0,0-1.38-.26l-1.89,1.36-1.25,3.86a.85.85,0,0,0,.38,1h0l4.13,2.17a.85.85,0,0,1-.38-1Z" style="fill: rgb(224, 224, 224); transform-origin: 142.71px 74.2631px;" id="elnqooh5wqwra" class="animable"></path><path d="M131.82,83.28,128.6,86.5a2,2,0,0,0-.5,1L124,85.33a2.45,2.45,0,0,1,.18-.54,1,1,0,0,1,.12-.23s0,0,0,0a1.46,1.46,0,0,1,.16-.19l3.23-3.22Z" style="fill: rgb(235, 235, 235); transform-origin: 127.91px 84.325px;" id="elz1meebw4v4h" class="animable"></path><path d="M136.28,69.28a1.64,1.64,0,0,1-.7.17l-2.47,0a1.53,1.53,0,0,0-1,.41L128,67.67a1.56,1.56,0,0,1,.34-.23l.2-.09h0l.18,0,.2,0H129l2.47,0a.55.55,0,0,0,.22,0l.16,0,.32-.12h0Z" style="fill: rgb(235, 235, 235); transform-origin: 132.14px 68.545px;" id="elzmme6hbdo4q" class="animable"></path><path d="M161.45,58.93a.63.63,0,0,0-.68.11l-3.31,2.37a1,1,0,0,1-1.37-.25,6.69,6.69,0,0,0-.7-.79,1.69,1.69,0,0,1-.46-1.6l.29-.88,1.42-1a.64.64,0,0,1,.7-.1h0Z" style="fill: rgb(235, 235, 235); transform-origin: 158.167px 59.1535px;" id="eljdkgrl5ygbd" class="animable"></path><path d="M156.06,53l-.26-.08-2.59-.47a1.39,1.39,0,0,0-1.42.73l-2.21,4.68a2.19,2.19,0,0,1-.52.64l-4.13-2.17a2.19,2.19,0,0,0,.52-.64L147.67,51a1.38,1.38,0,0,1,1.42-.73l2.58.48a.78.78,0,0,1,.27.09h0Z" style="fill: rgb(235, 235, 235); transform-origin: 150.495px 54.3781px;" id="elfqwqw0knopd" class="animable"></path><path d="M144.06,55.79a.65.65,0,0,0-.75.14l-3.71,3.16a2.12,2.12,0,0,0-.6,1L134.88,58c0-.05,0-.1,0-.15a2.4,2.4,0,0,1,.31-.62l.1-.12a.93.93,0,0,1,.14-.14l3.71-3.17a.78.78,0,0,1,.47-.2.67.67,0,0,1,.28.06Z" style="fill: rgb(235, 235, 235); transform-origin: 139.47px 56.845px;" id="eltlg9fwoctea" class="animable"></path><path d="M162.58,63.11l-.79-3.67a.61.61,0,0,0-1-.4l-3.3,2.37a1,1,0,0,1-1.37-.25,7.65,7.65,0,0,0-.69-.79,1.68,1.68,0,0,1-.47-1.6L156.47,54a.85.85,0,0,0-.68-1.14l-2.57-.47a1.4,1.4,0,0,0-1.43.73l-2.22,4.68a2.5,2.5,0,0,1-1.4,1.15,11.94,11.94,0,0,0-1.56.58.87.87,0,0,1-1.23-.5l-1-2.84a.63.63,0,0,0-1.09-.29l-3.71,3.16a2.14,2.14,0,0,0-.66,1.66l.37,3.63a2.87,2.87,0,0,1-.52,1.79c-.6.77-1.16,1.59-1.69,2.42a2,2,0,0,1-1.52.86l-2.47,0a1.55,1.55,0,0,0-1.38.92l-2.11,5.29a1,1,0,0,0,.57,1.29l2,.77A1.22,1.22,0,0,1,133,79a24.6,24.6,0,0,0-.32,2.49,3.12,3.12,0,0,1-.77,1.72l-3.27,3.26a2.08,2.08,0,0,0-.5,1.69l.79,3.68a.61.61,0,0,0,1,.39l3.3-2.36a1,1,0,0,1,1.37.25,7.47,7.47,0,0,0,.7.78,1.69,1.69,0,0,1,.46,1.6l-1.54,4.75a.86.86,0,0,0,.68,1.14l2.58.46a1.38,1.38,0,0,0,1.42-.73l2.22-4.67a2.52,2.52,0,0,1,1.41-1.15,11.92,11.92,0,0,0,1.55-.59.87.87,0,0,1,1.23.51l1,2.83a.64.64,0,0,0,1.09.3l3.71-3.17a2.14,2.14,0,0,0,.67-1.65l-.38-3.64a2.85,2.85,0,0,1,.53-1.78c.59-.78,1.16-1.59,1.68-2.43a2,2,0,0,1,1.53-.85l2.46,0a1.58,1.58,0,0,0,1.38-.93l2.11-5.28a1,1,0,0,0-.57-1.29l-2-.77a1.24,1.24,0,0,1-.74-1.35,21.81,21.81,0,0,0,.33-2.49,3,3,0,0,1,.76-1.71l3.27-3.26A2.06,2.06,0,0,0,162.58,63.11ZM147,83.5c-4,3.43-8,2.7-8.95-1.63s1.58-10.62,5.6-14.05,8-2.71,9,1.62S151,80.07,147,83.5Z" style="fill: rgb(245, 245, 245); transform-origin: 145.362px 75.6202px;" id="elxt31b2novi" class="animable"></path><path d="M111.5,68.12h0a.93.93,0,0,0-1,.05l-2.14,1.33-.5,1.25a2.42,2.42,0,0,0,.51,2.35,10.32,10.32,0,0,1,.93,1.2,1.43,1.43,0,0,0,2,.49l5-3.1a.94.94,0,0,1,1-.07Zm-8,17.78c-.57-4-3-6-6.34-5.86a10.2,10.2,0,0,1,.62,2.34c.91,6.33-3.33,15.15-9.45,19.7a12.19,12.19,0,0,1-6.36,2.64c1.85,4.27,6.82,4.81,12.1.88C100.15,101.05,104.38,92.23,103.46,85.9Zm.85-26.9h0a1.23,1.23,0,0,0-.39-.16l-3.66-.94a2,2,0,0,0-2.12.91l-3.66,6.53a2.81,2.81,0,0,1-.8.86h0a2.9,2.9,0,0,1-.6.38l1,3.65a1.26,1.26,0,0,0,1.72.84,18.46,18.46,0,0,1,2.29-.69,3.77,3.77,0,0,0,1.34-.65,2.89,2.89,0,0,0,.81-.87l3.65-6.53a2,2,0,0,1,2.11-.91l3.68.94a1.18,1.18,0,0,1,.36.14ZM92.15,122.8a1.07,1.07,0,0,1-.33-.57l-1.13-4.18a1.26,1.26,0,0,0-1.73-.84,16,16,0,0,1-2.29.68,2.87,2.87,0,0,0-.73.28l.15.54a1.05,1.05,0,0,0,.46.65h0ZM86.73,61.88a.78.78,0,0,0-.4-.12,1,1,0,0,0-.68.24L80,66.2a1,1,0,0,0-.22.2.77.77,0,0,0-.15.16,3.62,3.62,0,0,0-.51.86c0,.06,0,.14-.07.21h0a2.4,2.4,0,0,0-.17.88l.18,5.28a4.11,4.11,0,0,1-.93,2.52c-.94,1.06-1.82,2.18-2.66,3.33a2.76,2.76,0,0,1-1.24.91,2.38,2.38,0,0,1-.49.13.66.66,0,0,1-.24,0,.86.86,0,0,1-.32,0l-3.55-.27h-.08l-.29,0-.27,0h0a2.62,2.62,0,0,0-.81.42,2,2,0,0,0-.59.71L64,89.06a1.42,1.42,0,0,0,.51,1.82l3.89,2.38a1.73,1.73,0,0,1,.06,1,35.64,35.64,0,0,0-.72,3.56,4.37,4.37,0,0,1-1.25,2.39l-.06.05-5,4.32a1.48,1.48,0,0,0-.24.26l0,0a1.27,1.27,0,0,0-.2.31,2.92,2.92,0,0,0-.42,1.78l.79,5.37a1.1,1.1,0,0,0,.4.74l5.71,3.5a1,1,0,0,1-.38-.72l-.78-5.37a2.41,2.41,0,0,1,.09-1,2.87,2.87,0,0,1,.8-1.38l5-4.32.06,0a4.52,4.52,0,0,0,1.26-2.39,33,33,0,0,1,.72-3.56,1.79,1.79,0,0,0-.93-2l-2.85-1.3a1.43,1.43,0,0,1-.69-1.92l3.55-7.4a1.91,1.91,0,0,1,.59-.71,2.23,2.23,0,0,1,1.48-.5l3.56.27a2.22,2.22,0,0,0,1-.17,2.79,2.79,0,0,0,1.25-.91c.84-1.15,1.73-2.27,2.66-3.33a4.05,4.05,0,0,0,.93-2.52L84.61,72a2.1,2.1,0,0,1,.16-.9,3,3,0,0,1,1-1.42l5.64-4.2a.94.94,0,0,1,1.1-.12Zm-9.82,55.65a2.44,2.44,0,0,0-.52-2.35,10,10,0,0,1-.92-1.2,1.42,1.42,0,0,0-2-.5l-2.85,1.77-2.18,5.44a1.21,1.21,0,0,0,.45,1.51h0l5.75,3.53a1.21,1.21,0,0,1-.45-1.52Z" style="fill: rgb(224, 224, 224); transform-origin: 88.9295px 91.7932px;" id="elphvkekqfeg" class="animable"></path><path d="M72.17,103.81l-5,4.32a2.87,2.87,0,0,0-.8,1.38L60.68,106a4,4,0,0,1,.31-.77,1.27,1.27,0,0,1,.2-.31l0,0a1.48,1.48,0,0,1,.24-.26l5-4.32Z" style="fill: rgb(235, 235, 235); transform-origin: 66.425px 104.925px;" id="elhglmhki4exo" class="animable"></path><path d="M80,84.07a2.22,2.22,0,0,1-1,.17L75.36,84a2.23,2.23,0,0,0-1.48.5L68.15,81a2.62,2.62,0,0,1,.81-.42h0l.27,0,.29,0h.08l3.55.27a.86.86,0,0,0,.32,0,1,1,0,0,0,.24,0c.15,0,.31-.09.47-.14h0Z" style="fill: rgb(235, 235, 235); transform-origin: 74.075px 82.54px;" id="eljrjw5g07bt" class="animable"></path><path d="M117.22,71.62a1,1,0,0,0-1,.09l-5,3.09a1.42,1.42,0,0,1-2-.5,10.09,10.09,0,0,0-.93-1.2,2.42,2.42,0,0,1-.51-2.35l.5-1.23,2.14-1.33a1,1,0,0,1,1-.07h0Z" style="fill: rgb(235, 235, 235); transform-origin: 112.444px 71.5203px;" id="el1r3qu6odff5" class="animable"></path><path d="M110,62.51a1.18,1.18,0,0,0-.36-.14L106,61.43a2,2,0,0,0-2.11.91l-3.65,6.53a2.89,2.89,0,0,1-.81.87l-5.73-3.53a2.81,2.81,0,0,0,.8-.86l3.66-6.53a2,2,0,0,1,2.12-.91l3.66.94a1.23,1.23,0,0,1,.39.16h0Z" style="fill: rgb(235, 235, 235); transform-origin: 101.85px 63.8032px;" id="el4csbawbus0e" class="animable"></path><path d="M92.47,65.4a.94.94,0,0,0-1.1.12l-5.64,4.2a3,3,0,0,0-1,1.42L79,67.63c0-.07,0-.15.07-.21a3.62,3.62,0,0,1,.51-.86.77.77,0,0,1,.15-.16,1,1,0,0,1,.22-.2L85.65,62a1,1,0,0,1,.68-.24.78.78,0,0,1,.4.12Z" style="fill: rgb(235, 235, 235); transform-origin: 85.735px 66.4498px;" id="el2zspdjz9nqb" class="animable"></path><path d="M118.43,77.75l-.77-5.37a.88.88,0,0,0-1.44-.67l-5,3.09a1.42,1.42,0,0,1-2-.5,10.2,10.2,0,0,0-.93-1.19,2.45,2.45,0,0,1-.51-2.35l2.69-6.69a1.25,1.25,0,0,0-.87-1.71L106,61.44a2,2,0,0,0-2.12.91l-3.65,6.52a3.69,3.69,0,0,1-2.14,1.52,18.09,18.09,0,0,0-2.3.69,1.25,1.25,0,0,1-1.72-.85l-1.14-4.17a.92.92,0,0,0-1.55-.54l-5.65,4.2A3.11,3.11,0,0,0,84.61,72l.18,5.27a4.21,4.21,0,0,1-.93,2.53C82.93,80.9,82,82,81.2,83.17a2.86,2.86,0,0,1-2.28,1.08L75.37,84a2.3,2.3,0,0,0-2.08,1.2l-3.55,7.41a1.43,1.43,0,0,0,.69,1.92l2.84,1.3a1.79,1.79,0,0,1,.94,2,32.54,32.54,0,0,0-.72,3.56,4.45,4.45,0,0,1-1.26,2.39l-5,4.38a3,3,0,0,0-.89,2.39l.78,5.37a.87.87,0,0,0,1.44.67l5-3.09a1.42,1.42,0,0,1,2,.5,11.18,11.18,0,0,0,.92,1.2,2.42,2.42,0,0,1,.51,2.35l-2.68,6.69a1.23,1.23,0,0,0,.87,1.7l3.67.93a2,2,0,0,0,2.12-.92l3.65-6.52a3.66,3.66,0,0,1,2.14-1.52,16.6,16.6,0,0,0,2.3-.69,1.25,1.25,0,0,1,1.72.85l1.14,4.18a.92.92,0,0,0,1.54.53l5.65-4.2a3.05,3.05,0,0,0,1.12-2.32L100,111a4.22,4.22,0,0,1,.93-2.52c.94-1.06,1.83-2.18,2.67-3.33a2.86,2.86,0,0,1,2.28-1.08l3.55.27a2.3,2.3,0,0,0,2.08-1.2L115,95.7a1.42,1.42,0,0,0-.7-1.91l-2.84-1.31a1.77,1.77,0,0,1-.93-2,33.52,33.52,0,0,0,.72-3.56,4.42,4.42,0,0,1,1.26-2.4l5-4.37A3,3,0,0,0,118.43,77.75ZM94,105.6c-6.13,4.55-11.84,3.11-12.75-3.22s3.32-15.15,9.44-19.7,11.83-3.11,12.75,3.22S100.15,101.05,94,105.6Z" style="fill: rgb(245, 245, 245); transform-origin: 92.3843px 94.1544px;" id="el6lls55ms1va" class="animable"></path></g></g><g id="freepik--Plants--inject-73" class="animable" style="transform-origin: 53.8803px 362.986px;"><g id="freepik--plants--inject-73" class="animable" style="transform-origin: 53.8803px 362.986px;"><path d="M71.21,376.32S71.13,353.09,65.7,339s-14.79-24.14-24.85-27.06-20.24,4.82-10.62,13.54,27.7,19.33,31.69,45.38Z" style="fill: rgb(186, 104, 200); transform-origin: 48.7892px 343.816px;" id="elydlel80hec" class="animable"></path><g id="elqw90750rm3"><path d="M71.21,376.32S71.13,353.09,65.7,339s-14.79-24.14-24.85-27.06-20.24,4.82-10.62,13.54,27.7,19.33,31.69,45.38Z" style="opacity: 0.15; transform-origin: 48.7892px 343.816px;" class="animable"></path></g><path d="M67.52,364.75h.12a.56.56,0,0,0,.44-.65c-5.34-28.85-23.61-44.2-32.52-48.28a.56.56,0,0,0-.47,1c8.73,4,26.63,19.06,31.9,47.46A.57.57,0,0,0,67.52,364.75Z" style="fill: rgb(255, 255, 255); transform-origin: 51.4685px 340.274px;" id="el7jadg5ar8rh" class="animable"></path><path d="M83.39,402.12c1.51-2.66,2-4.76,2-9.88s-3.06-13.31-10-16.65c-2.1-1-4.84-1.7-6.08-4s-.69-6.28-1-8.65c-.39-3-1-6.31-3.19-8.42s-5.71-2.53-8.86-2.48c-2.64.05-5.33.29-7.93-.33s-4.63-2.15-6.92-3.37c-3.71-2-8-3.48-12.07-2.29a9.74,9.74,0,0,0-6.23,13.06c.9,2.18,2.56,4,3.77,6s1.86,4.34.95,6.55c-.68,1.64-1.9,2.89-2.46,4.59-1.44,4.36-.64,8.29,3.71,10.52,4.55,2.34,11.72.58,14,6.3.86,2.17.89,4.57,1.35,6.86A18.49,18.49,0,0,0,52,411.32a18.81,18.81,0,0,0,9.76,3.34s6.6-3.86,9.48-5.51C75.6,406.63,83.39,402.12,83.39,402.12Z" style="fill: rgb(186, 104, 200); transform-origin: 53.8803px 380.142px;" id="elmxwe9v8lvf" class="animable"></path><path d="M37.27,377.09a.48.48,0,0,0,.31,0,27.82,27.82,0,0,1,23.67,1.71.53.53,0,0,0,.5-.93,28.94,28.94,0,0,0-24.62-1.73.53.53,0,0,0-.25.7A.52.52,0,0,0,37.27,377.09Z" style="fill: rgb(255, 255, 255); transform-origin: 49.4099px 376.51px;" id="eltw3xqx990dn" class="animable"></path><path d="M71.27,404.92a.5.5,0,0,1-.5-.47c-.9-22-23-45.28-37.81-51.64a.49.49,0,0,1-.26-.64.5.5,0,0,1,.65-.26c15,6.45,37.48,30.11,38.4,52.49a.5.5,0,0,1-.47.52Z" style="fill: rgb(255, 255, 255); transform-origin: 52.2062px 378.396px;" id="elb46nj91pm5c" class="animable"></path></g></g><g id="freepik--chart-3--inject-73" class="animable" style="transform-origin: 265.209px 263.79px;"><g id="freepik--window-chart--inject-73" class="animable" style="transform-origin: 265.209px 263.79px;"><g id="freepik--Window--inject-73" class="animable" style="transform-origin: 265.209px 263.79px;"><path d="M296.12,202.12a3.31,3.31,0,0,0-3.44.28l-61,35.18a10.47,10.47,0,0,0-4.73,8.2v6.83h0V318a5.34,5.34,0,0,0,0,.69,5,5,0,0,0,2.48,3.68l5,2.89.24.14a3.25,3.25,0,0,1-1.7-2.86V258.79h0v-9.57A10.52,10.52,0,0,1,237.8,241l60.94-35.18a3.45,3.45,0,0,1,3.19-.4C300.91,204.89,297,202.63,296.12,202.12Z" style="fill: rgb(38, 50, 56); transform-origin: 264.434px 263.583px;" id="elavwp8c1esx5" class="animable"></path><path d="M303.45,208a1.56,1.56,0,0,0-.08-.43s0-.07,0-.1a2.58,2.58,0,0,0-.11-.42,2.06,2.06,0,0,0-.28-.6.72.72,0,0,0-.16-.25.47.47,0,0,0-.14-.17,1.34,1.34,0,0,0-.31-.32l0,0a2,2,0,0,0-.4-.23,3.45,3.45,0,0,0-3.19.4L237.8,241a10.52,10.52,0,0,0-4.74,8.22v73.36h0a3.24,3.24,0,0,0,4.86,2.81l60.82-35.19a10.48,10.48,0,0,0,4.74-8.21V208.56A5.68,5.68,0,0,0,303.45,208Z" style="fill: rgb(69, 90, 100); transform-origin: 268.27px 265.541px;" id="el7ppns5biyql" class="animable"></path><path d="M298.73,205.83,237.8,241a9.78,9.78,0,0,0-3.34,3.52l-6-3.49a9.49,9.49,0,0,1,3.3-3.46l60.94-35.18a3.31,3.31,0,0,1,3.44-.28c.85.52,4.79,2.75,5.79,3.29A3.45,3.45,0,0,0,298.73,205.83Z" style="fill: rgb(55, 71, 79); transform-origin: 265.195px 223.138px;" id="el9pl01m9hiob" class="animable"></path></g><g id="freepik--Chart--inject-73" class="animable" style="transform-origin: 268.249px 266.565px;"><path d="M268.93,265.57V242.83c6-3.43,11.52,0,13.44,8.07,2.37,9.94-1.58,25.43-8.87,33.66Z" style="fill: rgb(186, 104, 200); transform-origin: 275.994px 263.033px;" id="elzy9kz43zgg" class="animable"></path><path d="M268.19,288.05a10.39,10.39,0,0,1-3.67,1.33l3.67-19.55,3.68,15.3A17.53,17.53,0,0,1,268.19,288.05Z" style="fill: rgb(186, 104, 200); transform-origin: 268.195px 279.605px;" id="eltvo3mfou95" class="animable"></path><g id="elkesdt23sana"><g style="opacity: 0.4; transform-origin: 268.195px 279.605px;" class="animable"><path d="M268.19,288.05a10.39,10.39,0,0,1-3.67,1.33l3.67-19.55,3.68,15.3A17.53,17.53,0,0,1,268.19,288.05Z" style="fill: rgb(255, 255, 255); transform-origin: 268.195px 279.605px;" id="el6vg9lkt3pgx" class="animable"></path></g></g><path d="M262.89,290.69c-4,.15-7.23-3-8.63-8.32l12.79-13.78Z" style="fill: rgb(186, 104, 200); transform-origin: 260.655px 279.643px;" id="eloqhnv6zauic" class="animable"></path><g id="elffb0w9wn5d"><g style="opacity: 0.6; transform-origin: 260.655px 279.643px;" class="animable"><path d="M262.89,290.69c-4,.15-7.23-3-8.63-8.32l12.79-13.78Z" style="fill: rgb(255, 255, 255); transform-origin: 260.655px 279.643px;" id="eltuvfe0vmpys" class="animable"></path></g></g><path d="M254.5,279.74a27,27,0,0,1-.48-5.38c0-11.65,6-24.65,13.44-29.55v21Z" style="fill: rgb(186, 104, 200); transform-origin: 260.739px 262.275px;" id="elkkcat9ajo" class="animable"></path><g id="elbxksqnsq5pb"><g style="opacity: 0.75; transform-origin: 260.739px 262.275px;" class="animable"><path d="M254.5,279.74a27,27,0,0,1-.48-5.38c0-11.65,6-24.65,13.44-29.55v21Z" style="fill: rgb(255, 255, 255); transform-origin: 260.739px 262.275px;" id="elahhohz0gqam" class="animable"></path></g></g><path d="M278.5,252.79s0-.11,0-.23a.76.76,0,0,1,.22-.39l.88-.5c.08,0,.11.05.06.22a.74.74,0,0,1-.23.39l-.87.51S278.51,252.8,278.5,252.79Zm1.74-1s0-.11,0-.22a.74.74,0,0,1,.23-.39l.87-.51c.09,0,.11.05.06.22a.68.68,0,0,1-.22.39l-.88.51S280.26,251.79,280.24,251.78Zm1.75-1s0-.11,0-.22a.72.72,0,0,1,.23-.39l.87-.51c.08,0,.11.06.06.23a.79.79,0,0,1-.23.39l-.87.5S282,250.79,282,250.77Zm1.74-1s0-.11,0-.23a.79.79,0,0,1,.23-.39l.87-.5c.09-.05.11,0,.07.22a.79.79,0,0,1-.23.39l-.88.5A0,0,0,0,1,283.73,249.77Zm1.75-1s0-.11,0-.23a.72.72,0,0,1,.23-.39l.87-.5c.08,0,.11.05.06.22a.74.74,0,0,1-.23.39l-.87.51S285.49,248.77,285.48,248.76Zm1.74-1s0-.11,0-.22a.74.74,0,0,1,.23-.39l.65-.38c.08,0,.11.05.06.23a.84.84,0,0,1-.23.39l-.65.37S287.24,247.76,287.22,247.75Z" style="fill: rgb(240, 240, 240); transform-origin: 283.342px 249.797px;" id="el1yv7sxuo48m" class="animable"></path><path d="M248.81,268.36s0-.11,0-.23a.79.79,0,0,1,.23-.39l.87-.5c.09-.05.11.05.07.22a.74.74,0,0,1-.23.39l-.88.51Zm1.75-1s0-.11,0-.22a.76.76,0,0,1,.23-.4l.87-.5c.08-.05.11,0,.06.22a.68.68,0,0,1-.23.39l-.87.51Zm1.74-1s0-.11,0-.22a.74.74,0,0,1,.23-.39l.87-.51c.09-.05.11,0,.07.23a.79.79,0,0,1-.23.39l-.88.5A0,0,0,0,1,252.3,266.34Zm1.75-1s0-.11,0-.22a.72.72,0,0,1,.23-.39l.87-.5c.08-.05.11,0,.06.22a.72.72,0,0,1-.23.39l-.87.5S254.06,265.35,254.05,265.33Zm1.74-1a.33.33,0,0,1,0-.23.79.79,0,0,1,.23-.39l.88-.5c.08,0,.11.05.06.22a.79.79,0,0,1-.23.39l-.87.51Zm1.75-1s0-.11,0-.23a.84.84,0,0,1,.23-.39l.62-.36c.08,0,.11.06.06.23a.72.72,0,0,1-.22.39l-.63.36Z" style="fill: rgb(240, 240, 240); transform-origin: 253.642px 265.37px;" id="elupfm603qi0e" class="animable"></path><path d="M277.13,253.35a1.41,1.41,0,0,1,.54-1.14c.3-.17.54.06.54.52a1.41,1.41,0,0,1-.54,1.14C277.37,254,277.13,253.81,277.13,253.35Z" style="fill: rgb(69, 90, 100); transform-origin: 277.67px 253.032px;" id="el66yjaw72y9w" class="animable"></path><path d="M258,262.85a1.41,1.41,0,0,1,.54-1.14c.3-.18.54.06.54.51a1.41,1.41,0,0,1-.54,1.14C258.21,263.53,258,263.3,258,262.85Z" style="fill: rgb(69, 90, 100); transform-origin: 258.54px 262.533px;" id="elvbszz6b58ab" class="animable"></path><path d="M267.66,286.11a1.43,1.43,0,0,1,.53-1.13c.3-.18.54.06.54.51a1.41,1.41,0,0,1-.54,1.14C267.9,286.8,267.66,286.57,267.66,286.11Z" style="fill: rgb(69, 90, 100); transform-origin: 268.195px 285.803px;" id="el1z799wc37aj" class="animable"></path><path d="M291.5,246.7a.06.06,0,0,1-.07,0,.12.12,0,0,1,0-.09v-.68l-1.13.66a.06.06,0,0,1-.07,0,.12.12,0,0,1,0-.09v-.4a.77.77,0,0,1,0-.15l.06-.16,1.12-2.8a.5.5,0,0,1,.15-.23l.28-.16a0,0,0,0,1,.07,0s0,0,0,.09v2.25l.31-.18a.06.06,0,0,1,.07,0,.12.12,0,0,1,0,.09v.4a.31.31,0,0,1,0,.13s0,.07-.07.08l-.31.18v.69a.27.27,0,0,1,0,.12.35.35,0,0,1-.07.09Zm-.1-1.48V244l-.62,1.57Z" style="fill: rgb(186, 104, 200); transform-origin: 291.26px 244.656px;" id="elcastk5yfxu" class="animable"></path><path d="M292.79,242.16a.27.27,0,0,1,0-.12.22.22,0,0,1,.07-.09l1.37-.79s.05,0,.07,0a.12.12,0,0,1,0,.09v.4a.27.27,0,0,1,0,.12.23.23,0,0,1-.06.09l-1,.59,0,.75a1.13,1.13,0,0,1,.19-.19l.16-.1a1,1,0,0,1,.38-.14.47.47,0,0,1,.31.08.65.65,0,0,1,.2.29,1.56,1.56,0,0,1,.07.52,2.3,2.3,0,0,1-.08.66,1.83,1.83,0,0,1-.2.54,1.9,1.9,0,0,1-.31.42,1.69,1.69,0,0,1-.37.29,1,1,0,0,1-.43.16.42.42,0,0,1-.3-.07.52.52,0,0,1-.18-.25,1.43,1.43,0,0,1-.07-.38.28.28,0,0,1,0-.13s0-.07.07-.08l.3-.17a0,0,0,0,1,.06,0s0,0,0,.07a.46.46,0,0,0,.07.17.19.19,0,0,0,.11.07.24.24,0,0,0,.14,0l.16-.07a.94.94,0,0,0,.34-.37,1.28,1.28,0,0,0,.13-.56.44.44,0,0,0-.13-.35.32.32,0,0,0-.34,0l-.17.13a.6.6,0,0,0-.11.12.86.86,0,0,1-.07.1.3.3,0,0,1-.08.08l-.34.19a.06.06,0,0,1-.07,0s0,0,0-.09Z" style="fill: rgb(186, 104, 200); transform-origin: 293.577px 243.447px;" id="elgyob2fpmiv" class="animable"></path><path d="M295.36,240.49a.49.49,0,0,1,.23-.07.3.3,0,0,1,.27.23.85.85,0,0,1,.05.24v.62a1.51,1.51,0,0,1-.05.28,1.11,1.11,0,0,1-.1.29,1,1,0,0,1-.17.25.71.71,0,0,1-.23.19.42.42,0,0,1-.23.08.24.24,0,0,1-.17-.06.32.32,0,0,1-.1-.17.86.86,0,0,1-.05-.23v-.63a1.66,1.66,0,0,1,.05-.28,1.29,1.29,0,0,1,.27-.54A.9.9,0,0,1,295.36,240.49Zm.19,1.17a.34.34,0,0,0,0-.11v-.31a.28.28,0,0,0,0-.1.39.39,0,0,0,0-.17s-.08,0-.15,0a.38.38,0,0,0-.15.16.78.78,0,0,0,0,.22.34.34,0,0,0,0,.11v.31a.25.25,0,0,0,0,.1.39.39,0,0,0,0,.17s.08,0,.15,0a.33.33,0,0,0,.15-.16A.78.78,0,0,0,295.55,241.66Zm1.28-1.88a1.17,1.17,0,0,1,.05-.11.27.27,0,0,1,.08-.07l.22-.13h.06s0,0,0,.07a.08.08,0,0,1,0,0,0,0,0,0,1,0,0l-1.81,4.71a.28.28,0,0,1-.05.11.2.2,0,0,1-.08.08l-.22.12a0,0,0,0,1-.06,0s0,0,0-.07v0a.08.08,0,0,1,0,0Zm.12,1.78a.38.38,0,0,1,.23-.07.25.25,0,0,1,.17.06.35.35,0,0,1,.1.17.79.79,0,0,1,0,.23,3,3,0,0,1,0,.31c0,.11,0,.21,0,.31a1.55,1.55,0,0,1,0,.29,1.57,1.57,0,0,1-.1.28,1.18,1.18,0,0,1-.4.45.43.43,0,0,1-.24.07.27.27,0,0,1-.17-.06.49.49,0,0,1-.1-.16.86.86,0,0,1,0-.24,2.91,2.91,0,0,1,0-.31c0-.11,0-.21,0-.31a2.7,2.7,0,0,1,0-.28,2.47,2.47,0,0,1,.1-.29,1.38,1.38,0,0,1,.17-.25A.78.78,0,0,1,297,241.56Zm.19,1.16v-.52a.3.3,0,0,0-.05-.16s-.07,0-.14,0a.31.31,0,0,0-.15.17.71.71,0,0,0-.05.22v.11a.76.76,0,0,0,0,.15c0,.05,0,.1,0,.15V243a.34.34,0,0,0,.05.16s.07,0,.15,0a.31.31,0,0,0,.14-.16A.79.79,0,0,0,297.14,242.72Z" style="fill: rgb(186, 104, 200); transform-origin: 296.134px 242.015px;" id="el87qq415mblm" class="animable"></path><path d="M240.88,269.63s.05,0,.07,0a.12.12,0,0,1,0,.09v.4a.31.31,0,0,1,0,.13c0,.05,0,.09,0,.13l-.53,1.17a.8.8,0,0,1,.29-.05.38.38,0,0,1,.23.11.48.48,0,0,1,.15.25,1.64,1.64,0,0,1,.05.41,2.12,2.12,0,0,1-.07.57,2.28,2.28,0,0,1-.21.51,2.59,2.59,0,0,1-.32.42,1.61,1.61,0,0,1-.39.31,1.27,1.27,0,0,1-.45.17.51.51,0,0,1-.31-.06.43.43,0,0,1-.19-.23.79.79,0,0,1-.08-.32.27.27,0,0,1,0-.12.22.22,0,0,1,.07-.09l.29-.16a0,0,0,0,1,.06,0l0,.08a.24.24,0,0,0,.06.09.19.19,0,0,0,.09.05.47.47,0,0,0,.16,0l.22-.1a1,1,0,0,0,.36-.35.86.86,0,0,0,.14-.47c0-.17,0-.27-.14-.29a.58.58,0,0,0-.36.1l-.31.18a.06.06,0,0,1-.07,0,.2.2,0,0,1,0-.09v-.4a.21.21,0,0,1,0-.13,1.34,1.34,0,0,1,.06-.12l.51-1.13-1,.59a.06.06,0,0,1-.07,0,.12.12,0,0,1,0-.09v-.4a.27.27,0,0,1,0-.12.22.22,0,0,1,.07-.09Z" style="fill: rgb(186, 104, 200); transform-origin: 240.127px 271.942px;" id="elu6v9tmdtebk" class="animable"></path><path d="M243.43,269.62a1.77,1.77,0,0,1,0,.24v.53a1.85,1.85,0,0,1,0,.24,3.39,3.39,0,0,1-.06.64,2.61,2.61,0,0,1-.17.58,2.29,2.29,0,0,1-.3.5,1.49,1.49,0,0,1-.45.37.8.8,0,0,1-.46.15.4.4,0,0,1-.29-.15.78.78,0,0,1-.17-.39,3,3,0,0,1-.07-.57v-1a4.62,4.62,0,0,1,.07-.65,2.24,2.24,0,0,1,.17-.59,1.92,1.92,0,0,1,.29-.5,1.94,1.94,0,0,1,.46-.39.85.85,0,0,1,.45-.14.37.37,0,0,1,.3.15.88.88,0,0,1,.17.39A2.34,2.34,0,0,1,243.43,269.62ZM242,271.45a1.07,1.07,0,0,0,.13.56c.07.1.19.11.36,0a.8.8,0,0,0,.36-.43,2.31,2.31,0,0,0,.13-.71c0-.14,0-.3,0-.47s0-.33,0-.47a1,1,0,0,0-.13-.56c-.07-.11-.19-.11-.36,0a.8.8,0,0,0-.36.43,2,2,0,0,0-.13.7c0,.15,0,.31,0,.48S242,271.31,242,271.45Z" style="fill: rgb(186, 104, 200); transform-origin: 242.447px 270.68px;" id="elubtm709r5b" class="animable"></path><path d="M244.34,267.6a.41.41,0,0,1,.24-.07.23.23,0,0,1,.16.06.42.42,0,0,1,.11.17,1.57,1.57,0,0,1,0,.23c0,.09,0,.2,0,.31s0,.22,0,.32,0,.18,0,.28a1.62,1.62,0,0,1-.11.28,1.4,1.4,0,0,1-.16.26,1.12,1.12,0,0,1-.24.19.53.53,0,0,1-.23.08.43.43,0,0,1-.17-.06.48.48,0,0,1-.1-.17.86.86,0,0,1,0-.24,2.81,2.81,0,0,1,0-.3c0-.11,0-.22,0-.32a1.45,1.45,0,0,1,0-.28,1.66,1.66,0,0,1,.1-.29,1.38,1.38,0,0,1,.17-.25A.74.74,0,0,1,244.34,267.6Zm.2,1.16v-.52a.34.34,0,0,0,0-.16s-.08,0-.15,0a.32.32,0,0,0-.14.17.54.54,0,0,0,0,.22s0,.06,0,.11v.3c0,.05,0,.08,0,.11a.25.25,0,0,0,0,.16s.07,0,.14,0a.4.4,0,0,0,.15-.17A.79.79,0,0,0,244.54,268.76Zm1.27-1.87.05-.11a.18.18,0,0,1,.08-.07l.22-.13a.06.06,0,0,1,.07,0,.12.12,0,0,1,0,.07v0l0,0-1.8,4.71-.06.11a.19.19,0,0,1-.08.07l-.22.13s0,0-.06,0,0,0,0-.06v0s0,0,0,0Zm.12,1.77a.49.49,0,0,1,.23-.07.32.32,0,0,1,.17.06.4.4,0,0,1,.1.17.85.85,0,0,1,0,.23c0,.1,0,.2,0,.31s0,.22,0,.32a1.45,1.45,0,0,1,0,.28,1.33,1.33,0,0,1-.1.28,1.17,1.17,0,0,1-.17.26.71.71,0,0,1-.23.19.43.43,0,0,1-.24.08.23.23,0,0,1-.16-.06.42.42,0,0,1-.11-.17,1.57,1.57,0,0,1,0-.23c0-.1,0-.2,0-.31s0-.22,0-.32,0-.18,0-.28a1.36,1.36,0,0,1,.11-.28,1.4,1.4,0,0,1,.16-.26A1.16,1.16,0,0,1,245.93,268.66Zm.19,1.17a.4.4,0,0,0,0-.11c0-.05,0-.1,0-.16v-.15a.32.32,0,0,0,0-.1.26.26,0,0,0-.05-.17s-.07,0-.14,0a.33.33,0,0,0-.15.16.79.79,0,0,0-.05.22v.52a.3.3,0,0,0,.05.16s.08,0,.15,0a.29.29,0,0,0,.14-.17A.5.5,0,0,0,246.12,269.83Z" style="fill: rgb(186, 104, 200); transform-origin: 245.135px 269.119px;" id="elbh8tpqydfao" class="animable"></path><g id="elly006p0wzt"><g style="opacity: 0.75; transform-origin: 242.776px 270.411px;" class="animable"><path d="M240.88,269.63s.05,0,.07,0a.12.12,0,0,1,0,.09v.4a.31.31,0,0,1,0,.13c0,.05,0,.09,0,.13l-.53,1.17a.8.8,0,0,1,.29-.05.38.38,0,0,1,.23.11.48.48,0,0,1,.15.25,1.64,1.64,0,0,1,.05.41,2.12,2.12,0,0,1-.07.57,2.28,2.28,0,0,1-.21.51,2.59,2.59,0,0,1-.32.42,1.61,1.61,0,0,1-.39.31,1.27,1.27,0,0,1-.45.17.51.51,0,0,1-.31-.06.43.43,0,0,1-.19-.23.79.79,0,0,1-.08-.32.27.27,0,0,1,0-.12.22.22,0,0,1,.07-.09l.29-.16a0,0,0,0,1,.06,0l0,.08a.24.24,0,0,0,.06.09.19.19,0,0,0,.09.05.47.47,0,0,0,.16,0l.22-.1a1,1,0,0,0,.36-.35.86.86,0,0,0,.14-.47c0-.17,0-.27-.14-.29a.58.58,0,0,0-.36.1l-.31.18a.06.06,0,0,1-.07,0,.2.2,0,0,1,0-.09v-.4a.21.21,0,0,1,0-.13,1.34,1.34,0,0,1,.06-.12l.51-1.13-1,.59a.06.06,0,0,1-.07,0,.12.12,0,0,1,0-.09v-.4a.27.27,0,0,1,0-.12.22.22,0,0,1,.07-.09Z" style="fill: rgb(255, 255, 255); transform-origin: 240.127px 271.942px;" id="elaf2nrfsxbrh" class="animable"></path><path d="M243.43,269.62a1.77,1.77,0,0,1,0,.24v.53a1.85,1.85,0,0,1,0,.24,3.39,3.39,0,0,1-.06.64,2.61,2.61,0,0,1-.17.58,2.29,2.29,0,0,1-.3.5,1.49,1.49,0,0,1-.45.37.8.8,0,0,1-.46.15.4.4,0,0,1-.29-.15.78.78,0,0,1-.17-.39,3,3,0,0,1-.07-.57v-1a4.62,4.62,0,0,1,.07-.65,2.24,2.24,0,0,1,.17-.59,1.92,1.92,0,0,1,.29-.5,1.94,1.94,0,0,1,.46-.39.85.85,0,0,1,.45-.14.37.37,0,0,1,.3.15.88.88,0,0,1,.17.39A2.34,2.34,0,0,1,243.43,269.62ZM242,271.45a1.07,1.07,0,0,0,.13.56c.07.1.19.11.36,0a.8.8,0,0,0,.36-.43,2.31,2.31,0,0,0,.13-.71c0-.14,0-.3,0-.47s0-.33,0-.47a1,1,0,0,0-.13-.56c-.07-.11-.19-.11-.36,0a.8.8,0,0,0-.36.43,2,2,0,0,0-.13.7c0,.15,0,.31,0,.48S242,271.31,242,271.45Z" style="fill: rgb(255, 255, 255); transform-origin: 242.447px 270.68px;" id="el4in7j916k8b" class="animable"></path><path d="M244.34,267.6a.41.41,0,0,1,.24-.07.23.23,0,0,1,.16.06.42.42,0,0,1,.11.17,1.57,1.57,0,0,1,0,.23c0,.09,0,.2,0,.31s0,.22,0,.32,0,.18,0,.28a1.62,1.62,0,0,1-.11.28,1.4,1.4,0,0,1-.16.26,1.12,1.12,0,0,1-.24.19.53.53,0,0,1-.23.08.43.43,0,0,1-.17-.06.48.48,0,0,1-.1-.17.86.86,0,0,1,0-.24,2.81,2.81,0,0,1,0-.3c0-.11,0-.22,0-.32a1.45,1.45,0,0,1,0-.28,1.66,1.66,0,0,1,.1-.29,1.38,1.38,0,0,1,.17-.25A.74.74,0,0,1,244.34,267.6Zm.2,1.16v-.52a.34.34,0,0,0,0-.16s-.08,0-.15,0a.32.32,0,0,0-.14.17.54.54,0,0,0,0,.22s0,.06,0,.11v.3c0,.05,0,.08,0,.11a.25.25,0,0,0,0,.16s.07,0,.14,0a.4.4,0,0,0,.15-.17A.79.79,0,0,0,244.54,268.76Zm1.27-1.87.05-.11a.18.18,0,0,1,.08-.07l.22-.13a.06.06,0,0,1,.07,0,.12.12,0,0,1,0,.07v0l0,0-1.8,4.71-.06.11a.19.19,0,0,1-.08.07l-.22.13s0,0-.06,0,0,0,0-.06v0s0,0,0,0Zm.12,1.77a.49.49,0,0,1,.23-.07.32.32,0,0,1,.17.06.4.4,0,0,1,.1.17.85.85,0,0,1,0,.23c0,.1,0,.2,0,.31s0,.22,0,.32a1.45,1.45,0,0,1,0,.28,1.33,1.33,0,0,1-.1.28,1.17,1.17,0,0,1-.17.26.71.71,0,0,1-.23.19.43.43,0,0,1-.24.08.23.23,0,0,1-.16-.06.42.42,0,0,1-.11-.17,1.57,1.57,0,0,1,0-.23c0-.1,0-.2,0-.31s0-.22,0-.32,0-.18,0-.28a1.36,1.36,0,0,1,.11-.28,1.4,1.4,0,0,1,.16-.26A1.16,1.16,0,0,1,245.93,268.66Zm.19,1.17a.4.4,0,0,0,0-.11c0-.05,0-.1,0-.16v-.15a.32.32,0,0,0,0-.1.26.26,0,0,0-.05-.17s-.07,0-.14,0a.33.33,0,0,0-.15.16.79.79,0,0,0-.05.22v.52a.3.3,0,0,0,.05.16s.08,0,.15,0a.29.29,0,0,0,.14-.17A.5.5,0,0,0,246.12,269.83Z" style="fill: rgb(255, 255, 255); transform-origin: 245.135px 269.119px;" id="eld6mvtyhftzi" class="animable"></path></g></g><path d="M250.67,298.39s0-.11,0-.22a.83.83,0,0,1,.23-.4l.87-.5c.09,0,.11.05.07.22a.74.74,0,0,1-.23.39l-.88.51Zm1.75-1s0-.11,0-.22a.68.68,0,0,1,.23-.39l.87-.51c.08-.05.11.06.06.23a.76.76,0,0,1-.23.39l-.87.5A0,0,0,0,1,252.42,297.38Zm1.74-1s0-.11,0-.22a.79.79,0,0,1,.23-.39l.88-.5c.08-.05.1.05.06.22a.79.79,0,0,1-.23.39l-.88.5A0,0,0,0,1,254.16,296.37Zm1.75-1s0-.11,0-.23a.72.72,0,0,1,.23-.39l.87-.5c.08-.05.11.05.06.22a.72.72,0,0,1-.23.39l-.87.5S255.92,295.38,255.91,295.37Zm1.74-1a.33.33,0,0,1,0-.23.84.84,0,0,1,.23-.39l.88-.5c.08-.05.11.05.06.22a.74.74,0,0,1-.23.39l-.87.51Zm1.25-1.49a.13.13,0,0,1,0-.08v-1.34a.89.89,0,0,1,.17-.45c.09-.13.17-.13.17,0v1.34a1,1,0,0,1-.17.45C259,292.87,258.93,292.9,258.9,292.87Zm0-2.68a.2.2,0,0,1,0-.09v-1.34a.93.93,0,0,1,.17-.45c.09-.13.17-.13.17,0v1.34a.93.93,0,0,1-.17.45C259,290.19,258.93,290.21,258.9,290.19Zm0-2.69a.15.15,0,0,1,0-.08V286.1a1,1,0,0,1,.17-.45c.09-.13.17-.13.17,0V287a.89.89,0,0,1-.17.45C259,287.5,258.93,287.53,258.9,287.5Z" style="fill: rgb(240, 240, 240); transform-origin: 254.955px 291.971px;" id="el4mqg6yv9v2x" class="animable"></path><g id="elwywuntzl9x9"><ellipse cx="259.05" cy="285.05" rx="0.91" ry="0.49" style="fill: rgb(69, 90, 100); transform-origin: 259.05px 285.05px; transform: rotate(-73.1913deg);" class="animable"></ellipse></g><path d="M241.58,298.64s0,0,.07,0a.12.12,0,0,1,0,.09v.4a.31.31,0,0,1,0,.13.5.5,0,0,1-.05.13l-.53,1.17a.63.63,0,0,1,.29,0,.33.33,0,0,1,.23.1.48.48,0,0,1,.15.25,1.64,1.64,0,0,1,0,.41,2.12,2.12,0,0,1-.07.57,2.28,2.28,0,0,1-.21.51,2.59,2.59,0,0,1-.32.42,1.61,1.61,0,0,1-.39.31,1.27,1.27,0,0,1-.45.17.51.51,0,0,1-.31-.06.46.46,0,0,1-.19-.22.89.89,0,0,1-.08-.33.27.27,0,0,1,0-.12s0-.07.07-.08l.29-.17a0,0,0,0,1,.06,0l.05.08a.24.24,0,0,0,.06.09.19.19,0,0,0,.09.05.47.47,0,0,0,.16,0l.22-.1a1,1,0,0,0,.36-.35.86.86,0,0,0,.14-.47c0-.17-.05-.26-.14-.29a.65.65,0,0,0-.36.1l-.31.18s-.05,0-.06,0a.12.12,0,0,1,0-.09v-.4a.69.69,0,0,1,0-.13l.06-.12.51-1.13-1,.59a.06.06,0,0,1-.07,0,.12.12,0,0,1,0-.09v-.4a.27.27,0,0,1,0-.12.22.22,0,0,1,.07-.09Z" style="fill: rgb(186, 104, 200); transform-origin: 240.733px 300.972px;" id="el7xgduimmo1h" class="animable"></path><path d="M244.13,298.64a1.55,1.55,0,0,1,0,.23v.53a1.77,1.77,0,0,1,0,.24,3.39,3.39,0,0,1-.06.64,2.61,2.61,0,0,1-.17.58,1.59,1.59,0,0,1-.3.5,1.49,1.49,0,0,1-.45.37.79.79,0,0,1-.45.15.37.37,0,0,1-.3-.15.78.78,0,0,1-.17-.39,3,3,0,0,1-.07-.56v-.49c0-.18,0-.34,0-.49a3.49,3.49,0,0,1,.06-.65,2.24,2.24,0,0,1,.17-.59,1.87,1.87,0,0,1,.75-.89.85.85,0,0,1,.45-.14.4.4,0,0,1,.3.15.78.78,0,0,1,.17.39A2.37,2.37,0,0,1,244.13,298.64Zm-1.47,1.82a1,1,0,0,0,.13.56c.07.1.19.11.36,0a.8.8,0,0,0,.36-.43,2,2,0,0,0,.13-.71c0-.14,0-.3,0-.47s0-.33,0-.47a1.07,1.07,0,0,0-.13-.56c-.07-.1-.19-.11-.36,0a.8.8,0,0,0-.36.43,2,2,0,0,0-.13.71c0,.14,0,.3,0,.47S242.65,300.32,242.66,300.46Z" style="fill: rgb(186, 104, 200); transform-origin: 243.147px 299.705px;" id="eldiv2ef96uc8" class="animable"></path><path d="M245,296.61a.41.41,0,0,1,.24-.07.23.23,0,0,1,.16.06.42.42,0,0,1,.11.17,1.57,1.57,0,0,1,0,.23c0,.1,0,.2,0,.31s0,.22,0,.32,0,.18,0,.28a1.36,1.36,0,0,1-.11.28,1.13,1.13,0,0,1-.16.26,1.12,1.12,0,0,1-.24.19.53.53,0,0,1-.23.08.25.25,0,0,1-.17-.06.48.48,0,0,1-.1-.17.85.85,0,0,1,0-.23c0-.1,0-.2,0-.31s0-.22,0-.32a1.45,1.45,0,0,1,0-.28,1.33,1.33,0,0,1,.1-.28,1.17,1.17,0,0,1,.17-.26A.74.74,0,0,1,245,296.61Zm.2,1.16v-.52a.34.34,0,0,0-.05-.16s-.08,0-.15,0a.32.32,0,0,0-.14.17.54.54,0,0,0-.05.22s0,.06,0,.11v.3c0,.05,0,.09,0,.11a.25.25,0,0,0,.05.16s.07,0,.14,0a.35.35,0,0,0,.15-.17A.79.79,0,0,0,245.24,297.77Zm1.27-1.87.05-.11a.27.27,0,0,1,.08-.07l.22-.13a.06.06,0,0,1,.07,0,.12.12,0,0,1,0,.07v0a.06.06,0,0,0,0,0l-1.81,4.71-.06.11a.16.16,0,0,1-.07.07l-.22.13a.06.06,0,0,1-.07,0,.14.14,0,0,1,0-.07v0s0,0,0,0Zm.12,1.77a.49.49,0,0,1,.23-.07.32.32,0,0,1,.17.06.48.48,0,0,1,.1.17.61.61,0,0,1,0,.24,2.81,2.81,0,0,1,0,.3c0,.11,0,.22,0,.32a1.45,1.45,0,0,1,0,.28,1.66,1.66,0,0,1-.1.29,1.38,1.38,0,0,1-.17.25.71.71,0,0,1-.23.19.43.43,0,0,1-.24.08.23.23,0,0,1-.16-.06.42.42,0,0,1-.11-.17,1.57,1.57,0,0,1,0-.23v-.63c0-.09,0-.18,0-.28a1.62,1.62,0,0,1,.11-.28,1.4,1.4,0,0,1,.16-.26A1.16,1.16,0,0,1,246.63,297.67Zm.19,1.17s0-.06,0-.11v-.31c0-.05,0-.08,0-.1a.29.29,0,0,0,0-.17s-.07,0-.14,0a.33.33,0,0,0-.15.16.79.79,0,0,0,0,.22v.52a.3.3,0,0,0,0,.16s.08,0,.15,0a.31.31,0,0,0,.14-.16A.54.54,0,0,0,246.82,298.84Z" style="fill: rgb(186, 104, 200); transform-origin: 245.797px 298.135px;" id="el9j2hp1em8j9" class="animable"></path><g id="ela06mdba5ed"><g style="opacity: 0.6; transform-origin: 243.408px 299.441px;" class="animable"><path d="M241.58,298.64s0,0,.07,0a.12.12,0,0,1,0,.09v.4a.31.31,0,0,1,0,.13.5.5,0,0,1-.05.13l-.53,1.17a.63.63,0,0,1,.29,0,.33.33,0,0,1,.23.1.48.48,0,0,1,.15.25,1.64,1.64,0,0,1,0,.41,2.12,2.12,0,0,1-.07.57,2.28,2.28,0,0,1-.21.51,2.59,2.59,0,0,1-.32.42,1.61,1.61,0,0,1-.39.31,1.27,1.27,0,0,1-.45.17.51.51,0,0,1-.31-.06.46.46,0,0,1-.19-.22.89.89,0,0,1-.08-.33.27.27,0,0,1,0-.12s0-.07.07-.08l.29-.17a0,0,0,0,1,.06,0l.05.08a.24.24,0,0,0,.06.09.19.19,0,0,0,.09.05.47.47,0,0,0,.16,0l.22-.1a1,1,0,0,0,.36-.35.86.86,0,0,0,.14-.47c0-.17-.05-.26-.14-.29a.65.65,0,0,0-.36.1l-.31.18s-.05,0-.06,0a.12.12,0,0,1,0-.09v-.4a.69.69,0,0,1,0-.13l.06-.12.51-1.13-1,.59a.06.06,0,0,1-.07,0,.12.12,0,0,1,0-.09v-.4a.27.27,0,0,1,0-.12.22.22,0,0,1,.07-.09Z" style="fill: rgb(255, 255, 255); transform-origin: 240.733px 300.972px;" id="el65x98915myr" class="animable"></path><path d="M244.13,298.64a1.55,1.55,0,0,1,0,.23v.53a1.77,1.77,0,0,1,0,.24,3.39,3.39,0,0,1-.06.64,2.61,2.61,0,0,1-.17.58,1.59,1.59,0,0,1-.3.5,1.49,1.49,0,0,1-.45.37.79.79,0,0,1-.45.15.37.37,0,0,1-.3-.15.78.78,0,0,1-.17-.39,3,3,0,0,1-.07-.56v-.49c0-.18,0-.34,0-.49a3.49,3.49,0,0,1,.06-.65,2.24,2.24,0,0,1,.17-.59,1.87,1.87,0,0,1,.75-.89.85.85,0,0,1,.45-.14.4.4,0,0,1,.3.15.78.78,0,0,1,.17.39A2.37,2.37,0,0,1,244.13,298.64Zm-1.47,1.82a1,1,0,0,0,.13.56c.07.1.19.11.36,0a.8.8,0,0,0,.36-.43,2,2,0,0,0,.13-.71c0-.14,0-.3,0-.47s0-.33,0-.47a1.07,1.07,0,0,0-.13-.56c-.07-.1-.19-.11-.36,0a.8.8,0,0,0-.36.43,2,2,0,0,0-.13.71c0,.14,0,.3,0,.47S242.65,300.32,242.66,300.46Z" style="fill: rgb(255, 255, 255); transform-origin: 243.147px 299.705px;" id="eldgfyd49m5vq" class="animable"></path><path d="M245,296.61a.41.41,0,0,1,.24-.07.23.23,0,0,1,.16.06.42.42,0,0,1,.11.17,1.57,1.57,0,0,1,0,.23c0,.1,0,.2,0,.31s0,.22,0,.32,0,.18,0,.28a1.36,1.36,0,0,1-.11.28,1.13,1.13,0,0,1-.16.26,1.12,1.12,0,0,1-.24.19.53.53,0,0,1-.23.08.25.25,0,0,1-.17-.06.48.48,0,0,1-.1-.17.85.85,0,0,1,0-.23c0-.1,0-.2,0-.31s0-.22,0-.32a1.45,1.45,0,0,1,0-.28,1.33,1.33,0,0,1,.1-.28,1.17,1.17,0,0,1,.17-.26A.74.74,0,0,1,245,296.61Zm.2,1.16v-.52a.34.34,0,0,0-.05-.16s-.08,0-.15,0a.32.32,0,0,0-.14.17.54.54,0,0,0-.05.22s0,.06,0,.11v.3c0,.05,0,.09,0,.11a.25.25,0,0,0,.05.16s.07,0,.14,0a.35.35,0,0,0,.15-.17A.79.79,0,0,0,245.24,297.77Zm1.27-1.87.05-.11a.27.27,0,0,1,.08-.07l.22-.13a.06.06,0,0,1,.07,0,.12.12,0,0,1,0,.07v0a.06.06,0,0,0,0,0l-1.81,4.71-.06.11a.16.16,0,0,1-.07.07l-.22.13a.06.06,0,0,1-.07,0,.14.14,0,0,1,0-.07v0s0,0,0,0Zm.12,1.77a.49.49,0,0,1,.23-.07.32.32,0,0,1,.17.06.48.48,0,0,1,.1.17.61.61,0,0,1,0,.24,2.81,2.81,0,0,1,0,.3c0,.11,0,.22,0,.32a1.45,1.45,0,0,1,0,.28,1.66,1.66,0,0,1-.1.29,1.38,1.38,0,0,1-.17.25.71.71,0,0,1-.23.19.43.43,0,0,1-.24.08.23.23,0,0,1-.16-.06.42.42,0,0,1-.11-.17,1.57,1.57,0,0,1,0-.23v-.63c0-.09,0-.18,0-.28a1.62,1.62,0,0,1,.11-.28,1.4,1.4,0,0,1,.16-.26A1.16,1.16,0,0,1,246.63,297.67Zm.19,1.17s0-.06,0-.11v-.31c0-.05,0-.08,0-.1a.29.29,0,0,0,0-.17s-.07,0-.14,0a.33.33,0,0,0-.15.16.79.79,0,0,0,0,.22v.52a.3.3,0,0,0,0,.16s.08,0,.15,0a.31.31,0,0,0,.14-.16A.54.54,0,0,0,246.82,298.84Z" style="fill: rgb(255, 255, 255); transform-origin: 245.797px 298.135px;" id="elns1xagr1pv" class="animable"></path></g></g><path d="M287.34,279.21a.15.15,0,0,1,0-.1.28.28,0,0,1,0-.12l.79-1.43.06-.1.07-.07.29-.16a0,0,0,0,1,.06,0,.13.13,0,0,1,0,.09V281a.5.5,0,0,1,0,.12.19.19,0,0,1-.07.08l-.3.18a.06.06,0,0,1-.07,0,.12.12,0,0,1,0-.09v-2.78l-.52.92a.19.19,0,0,1-.07.08s-.05,0-.07,0Z" style="fill: rgb(186, 104, 200); transform-origin: 287.975px 279.311px;" id="elc8tg2ywjpa9" class="animable"></path><path d="M291.1,277.24v1a4.46,4.46,0,0,1-.07.65,2.28,2.28,0,0,1-.17.58,1.66,1.66,0,0,1-.3.49,1.52,1.52,0,0,1-.45.38,1,1,0,0,1-.45.15.42.42,0,0,1-.3-.15.94.94,0,0,1-.17-.39,3.22,3.22,0,0,1-.06-.57c0-.14,0-.3,0-.48s0-.35,0-.49a3.42,3.42,0,0,1,.06-.65,2.7,2.7,0,0,1,.17-.59,1.63,1.63,0,0,1,.3-.51,1.52,1.52,0,0,1,.45-.38.85.85,0,0,1,.45-.14.36.36,0,0,1,.3.14.83.83,0,0,1,.17.39A3.17,3.17,0,0,1,291.1,277.24Zm-1.48,1.83a1,1,0,0,0,.13.55c.07.11.19.11.36,0a.83.83,0,0,0,.37-.43,2.26,2.26,0,0,0,.12-.7c0-.15,0-.3,0-.48s0-.33,0-.47a1.12,1.12,0,0,0-.12-.55c-.08-.11-.2-.11-.37,0a.77.77,0,0,0-.36.43,2,2,0,0,0-.13.7c0,.15,0,.3,0,.48S289.62,278.93,289.62,279.07Z" style="fill: rgb(186, 104, 200); transform-origin: 290.115px 278.315px;" id="elsy5cz8y2ru" class="animable"></path><path d="M292,275.22a.43.43,0,0,1,.24-.08.29.29,0,0,1,.16.07.38.38,0,0,1,.11.16.86.86,0,0,1,0,.24c0,.09,0,.19,0,.3s0,.22,0,.32,0,.18,0,.28a1.45,1.45,0,0,1-.11.29,1.32,1.32,0,0,1-.16.25,1.16,1.16,0,0,1-.24.2.46.46,0,0,1-.23.07.25.25,0,0,1-.17-.06.4.4,0,0,1-.1-.17.79.79,0,0,1,0-.23,3,3,0,0,1,0-.31c0-.11,0-.21,0-.32a1.44,1.44,0,0,1,.14-.56,1.45,1.45,0,0,1,.17-.26A.83.83,0,0,1,292,275.22Zm.2,1.16v-.52a.38.38,0,0,0-.05-.17s-.08,0-.15,0a.31.31,0,0,0-.14.16.79.79,0,0,0-.05.22.49.49,0,0,1,0,.11v.31a.46.46,0,0,1,0,.1.29.29,0,0,0,.05.17s.07,0,.14,0a.33.33,0,0,0,.15-.16A.79.79,0,0,0,292.2,276.38Zm1.27-1.88.06-.11a.16.16,0,0,1,.07-.07l.22-.13h.07a.1.1,0,0,1,0,.07v0s0,0,0,0L292.09,279l0,.1-.08.08-.22.12a.06.06,0,0,1-.07,0,.1.1,0,0,1,0-.07v0s0,0,0,0Zm.12,1.78a.4.4,0,0,1,.23-.07.24.24,0,0,1,.17.06.32.32,0,0,1,.1.17.78.78,0,0,1,.05.23v.62a1.6,1.6,0,0,1-.05.29,1,1,0,0,1-.1.28.85.85,0,0,1-.17.25.74.74,0,0,1-.23.2.4.4,0,0,1-.23.07.24.24,0,0,1-.17-.06.29.29,0,0,1-.1-.16.86.86,0,0,1,0-.23v-.63a1.51,1.51,0,0,1,0-.28,1.11,1.11,0,0,1,.1-.29,1.32,1.32,0,0,1,.16-.25A.91.91,0,0,1,293.59,276.28Zm.19,1.16a.31.31,0,0,0,0-.11V277a.89.89,0,0,0-.05-.27s-.08,0-.15,0a.4.4,0,0,0-.15.17.72.72,0,0,0,0,.22.31.31,0,0,0,0,.11v.3a.89.89,0,0,0,.05.27s.08,0,.15,0a.33.33,0,0,0,.15-.16A.78.78,0,0,0,293.78,277.44Z" style="fill: rgb(186, 104, 200); transform-origin: 292.816px 276.751px;" id="ele9sz1jjxkgv" class="animable"></path><g id="elczdkyx63r64"><g style="opacity: 0.4; transform-origin: 290.736px 277.791px;" class="animable"><path d="M287.34,279.21a.15.15,0,0,1,0-.1.28.28,0,0,1,0-.12l.79-1.43.06-.1.07-.07.29-.16a0,0,0,0,1,.06,0,.13.13,0,0,1,0,.09V281a.5.5,0,0,1,0,.12.19.19,0,0,1-.07.08l-.3.18a.06.06,0,0,1-.07,0,.12.12,0,0,1,0-.09v-2.78l-.52.92a.19.19,0,0,1-.07.08s-.05,0-.07,0Z" style="fill: rgb(255, 255, 255); transform-origin: 287.975px 279.311px;" id="elr33gx5t8u7" class="animable"></path><path d="M291.1,277.24v1a4.46,4.46,0,0,1-.07.65,2.28,2.28,0,0,1-.17.58,1.66,1.66,0,0,1-.3.49,1.52,1.52,0,0,1-.45.38,1,1,0,0,1-.45.15.42.42,0,0,1-.3-.15.94.94,0,0,1-.17-.39,3.22,3.22,0,0,1-.06-.57c0-.14,0-.3,0-.48s0-.35,0-.49a3.42,3.42,0,0,1,.06-.65,2.7,2.7,0,0,1,.17-.59,1.63,1.63,0,0,1,.3-.51,1.52,1.52,0,0,1,.45-.38.85.85,0,0,1,.45-.14.36.36,0,0,1,.3.14.83.83,0,0,1,.17.39A3.17,3.17,0,0,1,291.1,277.24Zm-1.48,1.83a1,1,0,0,0,.13.55c.07.11.19.11.36,0a.83.83,0,0,0,.37-.43,2.26,2.26,0,0,0,.12-.7c0-.15,0-.3,0-.48s0-.33,0-.47a1.12,1.12,0,0,0-.12-.55c-.08-.11-.2-.11-.37,0a.77.77,0,0,0-.36.43,2,2,0,0,0-.13.7c0,.15,0,.3,0,.48S289.62,278.93,289.62,279.07Z" style="fill: rgb(255, 255, 255); transform-origin: 290.115px 278.315px;" id="ell564fk4g7o" class="animable"></path><path d="M292,275.22a.43.43,0,0,1,.24-.08.29.29,0,0,1,.16.07.38.38,0,0,1,.11.16.86.86,0,0,1,0,.24c0,.09,0,.19,0,.3s0,.22,0,.32,0,.18,0,.28a1.45,1.45,0,0,1-.11.29,1.32,1.32,0,0,1-.16.25,1.16,1.16,0,0,1-.24.2.46.46,0,0,1-.23.07.25.25,0,0,1-.17-.06.4.4,0,0,1-.1-.17.79.79,0,0,1,0-.23,3,3,0,0,1,0-.31c0-.11,0-.21,0-.32a1.44,1.44,0,0,1,.14-.56,1.45,1.45,0,0,1,.17-.26A.83.83,0,0,1,292,275.22Zm.2,1.16v-.52a.38.38,0,0,0-.05-.17s-.08,0-.15,0a.31.31,0,0,0-.14.16.79.79,0,0,0-.05.22.49.49,0,0,1,0,.11v.31a.46.46,0,0,1,0,.1.29.29,0,0,0,.05.17s.07,0,.14,0a.33.33,0,0,0,.15-.16A.79.79,0,0,0,292.2,276.38Zm1.27-1.88.06-.11a.16.16,0,0,1,.07-.07l.22-.13h.07a.1.1,0,0,1,0,.07v0s0,0,0,0L292.09,279l0,.1-.08.08-.22.12a.06.06,0,0,1-.07,0,.1.1,0,0,1,0-.07v0s0,0,0,0Zm.12,1.78a.4.4,0,0,1,.23-.07.24.24,0,0,1,.17.06.32.32,0,0,1,.1.17.78.78,0,0,1,.05.23v.62a1.6,1.6,0,0,1-.05.29,1,1,0,0,1-.1.28.85.85,0,0,1-.17.25.74.74,0,0,1-.23.2.4.4,0,0,1-.23.07.24.24,0,0,1-.17-.06.29.29,0,0,1-.1-.16.86.86,0,0,1,0-.23v-.63a1.51,1.51,0,0,1,0-.28,1.11,1.11,0,0,1,.1-.29,1.32,1.32,0,0,1,.16-.25A.91.91,0,0,1,293.59,276.28Zm.19,1.16a.31.31,0,0,0,0-.11V277a.89.89,0,0,0-.05-.27s-.08,0-.15,0a.4.4,0,0,0-.15.17.72.72,0,0,0,0,.22.31.31,0,0,0,0,.11v.3a.89.89,0,0,0,.05.27s.08,0,.15,0a.33.33,0,0,0,.15-.16A.78.78,0,0,0,293.78,277.44Z" style="fill: rgb(255, 255, 255); transform-origin: 292.816px 276.751px;" id="elwc6n27o5es" class="animable"></path></g></g><path d="M268.05,293.11s0,0,0-.08v-.8a1,1,0,0,1,.16-.45c.1-.12.17-.12.17,0v.67l.27-.16c.09,0,.11.06.06.23a.72.72,0,0,1-.22.39l-.36.2S268.06,293.13,268.05,293.11Zm1.23-.71s0-.11,0-.22a.72.72,0,0,1,.23-.39l.87-.5c.08-.05.11,0,.06.22a.79.79,0,0,1-.23.39l-.87.5S269.29,292.42,269.28,292.4ZM268.05,291s0,0,0-.08v-1.34a.88.88,0,0,1,.16-.45c.1-.13.17-.13.17,0v1.34a.87.87,0,0,1-.17.45C268.13,291,268.08,291,268.05,291Zm3,.43s0-.11,0-.23a.79.79,0,0,1,.23-.39l.87-.5c.09,0,.11.05.07.22a.79.79,0,0,1-.23.39l-.88.5A0,0,0,0,1,271,291.4Zm-3-3.11s0-.05,0-.09v-1.34a.91.91,0,0,1,.16-.45c.1-.13.17-.13.17,0v1.34a.84.84,0,0,1-.17.45C268.13,288.29,268.08,288.31,268.05,288.29Zm4.72,2.1s0-.11,0-.23a.72.72,0,0,1,.23-.39l.87-.5c.08,0,.11.05.06.22a.74.74,0,0,1-.23.39l-.87.51Zm1.74-1s0-.11,0-.22a.74.74,0,0,1,.23-.39l.87-.51c.09-.05.11.06.07.22a.83.83,0,0,1-.23.4l-.88.5S274.53,289.39,274.51,289.38Zm1.75-1s0-.11,0-.22a.68.68,0,0,1,.23-.39l.87-.51c.08-.05.11.05.06.23a.72.72,0,0,1-.23.39l-.87.5S276.27,288.39,276.26,288.37Z" style="fill: rgb(240, 240, 240); transform-origin: 272.747px 289.731px;" id="elnoas7a5p0et" class="animable"></path><path d="M278,287.36a.3.3,0,0,1,0-.22.79.79,0,0,1,.23-.39l.88-.5c.08-.05.11.05.06.22a.79.79,0,0,1-.23.39l-.87.5S278,287.38,278,287.36Z" style="fill: rgb(240, 240, 240); transform-origin: 278.587px 286.803px;" id="elffb7jf6e25q" class="animable"></path><path d="M279.75,286.36s0-.11,0-.23a.79.79,0,0,1,.23-.39l.87-.5c.08-.05.11.05.06.22a.72.72,0,0,1-.23.39l-.87.5S279.76,286.37,279.75,286.36Z" style="fill: rgb(240, 240, 240); transform-origin: 280.342px 285.795px;" id="el8qmn3jzyqmo" class="animable"></path><path d="M281.5,285.35s0-.11,0-.23a.72.72,0,0,1,.22-.39l.88-.5c.08-.05.11,0,.06.22a.79.79,0,0,1-.23.39l-.87.51Z" style="fill: rgb(240, 240, 240); transform-origin: 282.092px 284.781px;" id="elqfvzl89xcyb" class="animable"></path><path d="M283.24,284.34s0-.11,0-.23a.84.84,0,0,1,.23-.39l.87-.5c.08-.05.11,0,.06.22a.68.68,0,0,1-.22.39l-.88.51A.06.06,0,0,1,283.24,284.34Z" style="fill: rgb(240, 240, 240); transform-origin: 283.832px 283.775px;" id="elcca2zf5779t" class="animable"></path><path d="M237.74,280l10-5.87a1.64,1.64,0,0,0,.7-1.3c0-.5-.31-.72-.69-.5l-10.12,5.78a1.6,1.6,0,0,0-.65,1.35C237,280,237.35,280.21,237.74,280Z" style="fill: rgb(240, 240, 240); transform-origin: 242.709px 276.163px;" id="el5wm7xur36mh" class="animable"></path><path d="M238.43,309.22l10-5.88a1.61,1.61,0,0,0,.7-1.3c0-.49-.31-.71-.69-.49l-10.12,5.78a1.6,1.6,0,0,0-.65,1.35C237.71,309.2,238,309.44,238.43,309.22Z" style="fill: rgb(240, 240, 240); transform-origin: 243.399px 305.383px;" id="eldooqedcnhrt" class="animable"></path><path d="M285.77,287.49l10-5.88a1.64,1.64,0,0,0,.7-1.3c0-.49-.31-.71-.69-.49l-10.12,5.78A1.58,1.58,0,0,0,285,287C285.05,287.47,285.38,287.71,285.77,287.49Z" style="fill: rgb(240, 240, 240); transform-origin: 290.733px 283.654px;" id="elu3elrodxapa" class="animable"></path><path d="M288.82,253l10-5.87a1.67,1.67,0,0,0,.7-1.3c0-.49-.31-.71-.69-.5l-10.12,5.78a1.58,1.58,0,0,0-.65,1.35C288.1,253,288.43,253.2,288.82,253Z" style="fill: rgb(240, 240, 240); transform-origin: 293.789px 249.163px;" id="el75630k8gg9d" class="animable"></path><path d="M253,241.65a4.64,4.64,0,0,1,2.17-3.59l24.1-13.92c1.2-.69,2.17-.2,2.17,1.1a4.64,4.64,0,0,1-2.17,3.59l-24.1,13.92C254,243.44,253,243,253,241.65Z" style="fill: rgb(186, 104, 200); transform-origin: 267.22px 233.45px;" id="el341cyibm3ht" class="animable"></path></g></g></g><g id="freepik--chart-2--inject-73" class="animable" style="transform-origin: 141.599px 335.144px;"><g id="freepik--window-chart--inject-73" class="animable" style="transform-origin: 141.599px 335.144px;"><g id="freepik--window--inject-73" class="animable" style="transform-origin: 141.599px 335.144px;"><path d="M207.39,253.4a3.31,3.31,0,0,0-3.44.28L73.19,329a10.49,10.49,0,0,0-4.73,8.21v6.82h0V409.5a5.32,5.32,0,0,0,0,.69A5,5,0,0,0,71,413.86l5,2.89.24.14a3.23,3.23,0,0,1-1.7-2.85V350.25h0v-9.57a10.52,10.52,0,0,1,4.74-8.22L210,257.11a3.46,3.46,0,0,1,3.19-.41C212.18,256.17,208.25,253.92,207.39,253.4Z" style="fill: rgb(38, 50, 56); transform-origin: 140.819px 334.968px;" id="ely12c2ttvxif" class="animable"></path><path d="M214.72,259.25a2,2,0,0,0-.08-.43s0-.06,0-.09a2.13,2.13,0,0,0-.11-.42,2.43,2.43,0,0,0-.28-.61.82.82,0,0,0-.16-.25.79.79,0,0,0-.14-.17,1.3,1.3,0,0,0-.31-.31l0,0a1.91,1.91,0,0,0-.41-.24,3.46,3.46,0,0,0-3.19.41L79.26,332.46a10.52,10.52,0,0,0-4.74,8.22V414h0a3.25,3.25,0,0,0,4.87,2.81L210,341.49a10.49,10.49,0,0,0,4.75-8.22V259.85A5.74,5.74,0,0,0,214.72,259.25Z" style="fill: rgb(69, 90, 100); transform-origin: 144.635px 336.878px;" id="elkuib4osx05e" class="animable"></path><path d="M210,257.11,79.27,332.46A9.69,9.69,0,0,0,75.93,336l-6-3.49A9.49,9.49,0,0,1,73.2,329L204,253.68a3.33,3.33,0,0,1,3.44-.28c.85.52,4.79,2.76,5.79,3.29A3.45,3.45,0,0,0,210,257.11Z" style="fill: rgb(55, 71, 79); transform-origin: 141.58px 294.524px;" id="elvur1qt4d4o" class="animable"></path></g><g id="freepik--chart--inject-73" class="animable" style="transform-origin: 143.232px 335.209px;"><g id="elpoc1h50d17"><path d="M95.08,336.71a.33.33,0,0,1-.28-.16.34.34,0,0,1,.12-.44l109.9-63.45a.31.31,0,0,1,.44.12.32.32,0,0,1-.11.44L95.25,336.67A.35.35,0,0,1,95.08,336.71Z" style="fill: rgb(255, 255, 255); opacity: 0.5; transform-origin: 150.035px 304.661px;" class="animable"></path></g><g id="elryduz59eacs"><path d="M95.08,348.8a.32.32,0,0,1-.16-.6l109.9-63.46a.33.33,0,0,1,.44.12.32.32,0,0,1-.11.44L95.25,348.76A.53.53,0,0,1,95.08,348.8Z" style="fill: rgb(255, 255, 255); opacity: 0.5; transform-origin: 150.03px 316.75px;" class="animable"></path></g><g id="eldj9zvortja4"><path d="M95.08,360.88a.31.31,0,0,1-.28-.16.34.34,0,0,1,.12-.44l109.9-63.45a.33.33,0,1,1,.33.56L95.25,360.84A.35.35,0,0,1,95.08,360.88Z" style="fill: rgb(255, 255, 255); opacity: 0.5; transform-origin: 150.064px 328.816px;" class="animable"></path></g><g id="eltgnwhuc3icn"><path d="M95.08,373a.32.32,0,0,1-.16-.6l109.9-63.45a.33.33,0,0,1,.45.11.35.35,0,0,1-.12.45L95.25,372.93A.35.35,0,0,1,95.08,373Z" style="fill: rgb(255, 255, 255); opacity: 0.5; transform-origin: 150.031px 340.952px;" class="animable"></path></g><path d="M95.08,385.06a.32.32,0,0,1-.28-.17.34.34,0,0,1,.12-.44L204.82,321a.35.35,0,0,1,.45.12.33.33,0,0,1-.12.44L95.25,385A.37.37,0,0,1,95.08,385.06Z" style="fill: rgb(250, 250, 250); transform-origin: 150.037px 353.011px;" id="el3kyx91ed6wa" class="animable"></path><path d="M99.07,368.16a3.09,3.09,0,0,1,1.4-2.42l2.44-1.41c.77-.45,1.4-.09,1.4.8v13.93l-5.24,3Z" style="fill: rgb(186, 104, 200); transform-origin: 101.69px 373.098px;" id="elehha8fjyvx" class="animable"></path><path d="M106.63,350.88a3.09,3.09,0,0,1,1.39-2.42l2.44-1.41c.77-.44,1.4-.08,1.4.81V374.7l-5.23,3Z" style="fill: rgb(186, 104, 200); transform-origin: 109.245px 362.281px;" id="elqrmxe2pi03" class="animable"></path><path d="M114.18,356.84a3.09,3.09,0,0,1,1.39-2.42L118,353c.77-.44,1.39-.08,1.39.81v16.52l-5.23,3Z" style="fill: rgb(186, 104, 200); transform-origin: 116.775px 363.071px;" id="el28h2ss3hxc9" class="animable"></path><g id="elo21w5k8kg6"><path d="M114.18,356.84a3.09,3.09,0,0,1,1.39-2.42L118,353c.77-.44,1.39-.08,1.39.81v16.52l-5.23,3Z" style="opacity: 0.2; transform-origin: 116.775px 363.071px;" class="animable"></path></g><g id="elvsu0hop80mn"><path d="M106.63,350.88a3.09,3.09,0,0,1,1.39-2.42l2.44-1.41c.77-.44,1.4-.08,1.4.81V374.7l-5.23,3Z" style="fill: rgb(255, 255, 255); opacity: 0.7; transform-origin: 109.245px 362.281px;" class="animable"></path></g><path d="M126.09,344.54a3.09,3.09,0,0,1,1.39-2.42l2.44-1.41c.77-.44,1.4-.08,1.4.8v21.95l-5.23,3Z" style="fill: rgb(186, 104, 200); transform-origin: 128.705px 353.491px;" id="el5stsxadqot3" class="animable"></path><path d="M133.64,337.16a3.09,3.09,0,0,1,1.39-2.42l2.45-1.41c.77-.44,1.39-.08,1.39.81v25l-5.23,3Z" style="fill: rgb(186, 104, 200); transform-origin: 136.255px 347.641px;" id="el35j0pxvt82u" class="animable"></path><path d="M141.19,316.3a3.09,3.09,0,0,1,1.39-2.42l2.45-1.41c.77-.44,1.39-.08,1.39.81v41.46l-5.23,3Z" style="fill: rgb(186, 104, 200); transform-origin: 143.805px 335.011px;" id="elwfiicwymfb" class="animable"></path><g id="elqp41y1v7sho"><path d="M141.19,316.3a3.09,3.09,0,0,1,1.39-2.42l2.45-1.41c.77-.44,1.39-.08,1.39.81v41.46l-5.23,3Z" style="opacity: 0.2; transform-origin: 143.805px 335.011px;" class="animable"></path></g><g id="elblb77andamb"><path d="M133.64,337.16a3.09,3.09,0,0,1,1.39-2.42l2.45-1.41c.77-.44,1.39-.08,1.39.81v25l-5.23,3Z" style="fill: rgb(255, 255, 255); opacity: 0.7; transform-origin: 136.255px 347.641px;" class="animable"></path></g><path d="M153.1,347.62a3.08,3.08,0,0,1,1.39-2.41l2.45-1.41c.77-.45,1.39-.09,1.39.8v3.26l-5.23,3Z" style="fill: rgb(186, 104, 200); transform-origin: 155.715px 347.233px;" id="elbtllnp4boad" class="animable"></path><path d="M160.65,317.32a3.06,3.06,0,0,1,1.39-2.41l2.45-1.41c.77-.45,1.39-.09,1.39.8v29.2l-5.23,3Z" style="fill: rgb(186, 104, 200); transform-origin: 163.265px 329.903px;" id="elnbgyt1r9fpk" class="animable"></path><path d="M168.2,320.2a3.08,3.08,0,0,1,1.39-2.42l2.45-1.41c.77-.45,1.39-.09,1.39.8v22l-5.23,3Z" style="fill: rgb(186, 104, 200); transform-origin: 170.815px 329.173px;" id="elthhkmrz3sn" class="animable"></path><g id="el10yhpnosecmi"><path d="M168.2,320.2a3.08,3.08,0,0,1,1.39-2.42l2.45-1.41c.77-.45,1.39-.09,1.39.8v22l-5.23,3Z" style="opacity: 0.2; transform-origin: 170.815px 329.173px;" class="animable"></path></g><g id="el66xsgze7of"><path d="M160.65,317.32a3.06,3.06,0,0,1,1.39-2.41l2.45-1.41c.77-.45,1.39-.09,1.39.8v29.2l-5.23,3Z" style="fill: rgb(255, 255, 255); opacity: 0.7; transform-origin: 163.265px 329.903px;" class="animable"></path></g><path d="M180.11,321.37A3.09,3.09,0,0,1,181.5,319l2.45-1.41c.77-.44,1.39-.08,1.39.81v13.92l-5.23,3Z" style="fill: rgb(186, 104, 200); transform-origin: 182.725px 326.361px;" id="elap8xt4nei5" class="animable"></path><path d="M187.66,296.52a3.09,3.09,0,0,1,1.39-2.42l2.45-1.41c.77-.44,1.39-.08,1.39.81v34.41l-5.23,3Z" style="fill: rgb(186, 104, 200); transform-origin: 190.275px 311.706px;" id="ely5l38gz2s7g" class="animable"></path><path d="M195.21,310.06a3.09,3.09,0,0,1,1.4-2.42l2.44-1.41c.77-.45,1.39-.09,1.39.8v16.52l-5.23,3Z" style="fill: rgb(186, 104, 200); transform-origin: 197.825px 316.293px;" id="elkl5slzpgycb" class="animable"></path><g id="elol2op71vwx"><path d="M195.21,310.06a3.09,3.09,0,0,1,1.4-2.42l2.44-1.41c.77-.45,1.39-.09,1.39.8v16.52l-5.23,3Z" style="opacity: 0.2; transform-origin: 197.825px 316.293px;" class="animable"></path></g><g id="elx02yf558f4r"><path d="M187.66,296.52a3.09,3.09,0,0,1,1.39-2.42l2.45-1.41c.77-.44,1.39-.08,1.39.81v34.41l-5.23,3Z" style="fill: rgb(255, 255, 255); opacity: 0.7; transform-origin: 190.275px 311.706px;" class="animable"></path></g><path d="M81.1,391.49a2.74,2.74,0,0,1,1.4-2l7.68-4.43c.77-.45,1.39-.28,1.39.36a2.72,2.72,0,0,1-1.39,2l-7.68,4.43C81.73,392.3,81.1,392.13,81.1,391.49Z" style="fill: rgb(250, 250, 250); transform-origin: 86.335px 388.455px;" id="elwitgqv0epc" class="animable"></path><path d="M81.1,368.49a2.74,2.74,0,0,1,1.4-2l7.68-4.43c.77-.45,1.39-.28,1.39.36a2.72,2.72,0,0,1-1.39,2l-7.68,4.43C81.73,369.3,81.1,369.13,81.1,368.49Z" style="fill: rgb(250, 250, 250); transform-origin: 86.335px 365.455px;" id="el8mskc0b6mt3" class="animable"></path><path d="M81.1,345.55a2.76,2.76,0,0,1,1.4-2l7.68-4.43c.77-.44,1.39-.28,1.39.37a2.72,2.72,0,0,1-1.39,2l-7.68,4.44C81.73,346.36,81.1,346.2,81.1,345.55Z" style="fill: rgb(250, 250, 250); transform-origin: 86.335px 342.521px;" id="eliqch6ov0rr" class="animable"></path><path d="M103.76,391.19a2.72,2.72,0,0,1,1.39-2l16.25-9.38c.77-.45,1.4-.28,1.4.36a2.74,2.74,0,0,1-1.4,2l-16.25,9.38C104.38,392,103.76,391.84,103.76,391.19Z" style="fill: rgb(250, 250, 250); transform-origin: 113.28px 385.681px;" id="eltxl8mms3e6" class="animable"></path><path d="M99.7,394.79V392.1c0-.55-.39-.77-.87-.5L96.5,393a1.89,1.89,0,0,0-.87,1.5v2.69c0,.55.39.77.87.5l2.33-1.35A1.91,1.91,0,0,0,99.7,394.79Z" style="fill: rgb(186, 104, 200); transform-origin: 97.665px 394.645px;" id="ellphlom41mhm" class="animable"></path><path d="M144.32,367.79a2.72,2.72,0,0,1,1.39-2L162,356.43c.77-.45,1.39-.28,1.39.36a2.72,2.72,0,0,1-1.39,2l-16.25,9.38C144.94,368.6,144.32,368.43,144.32,367.79Z" style="fill: rgb(250, 250, 250); transform-origin: 153.855px 362.292px;" id="elkgfpn80ae3" class="animable"></path><path d="M140.25,371.38v-2.69c0-.55-.38-.77-.86-.5l-2.33,1.35a1.89,1.89,0,0,0-.87,1.5v2.69c0,.55.39.77.87.5l2.33-1.35A1.9,1.9,0,0,0,140.25,371.38Z" style="fill: rgb(186, 104, 200); transform-origin: 138.22px 371.21px;" id="eltcoiyalcjp" class="animable"></path><g id="el7tm1qehjg3t"><path d="M140.25,371.38v-2.69c0-.55-.38-.77-.86-.5l-2.33,1.35a1.89,1.89,0,0,0-.87,1.5v2.69c0,.55.39.77.87.5l2.33-1.35A1.9,1.9,0,0,0,140.25,371.38Z" style="fill: rgb(255, 255, 255); opacity: 0.7; transform-origin: 138.22px 371.21px;" class="animable"></path></g><path d="M184.87,344.38a2.74,2.74,0,0,1,1.4-2L202.52,333c.77-.45,1.39-.28,1.39.36a2.72,2.72,0,0,1-1.39,2l-16.25,9.38C185.5,345.19,184.87,345,184.87,344.38Z" style="fill: rgb(250, 250, 250); transform-origin: 194.39px 338.867px;" id="el5knogh6tqe2" class="animable"></path><path d="M180.81,348v-2.69c0-.55-.39-.77-.86-.5l-2.33,1.35a1.89,1.89,0,0,0-.87,1.5v2.69c0,.55.39.77.87.5l2.33-1.35A1.92,1.92,0,0,0,180.81,348Z" style="fill: rgb(186, 104, 200); transform-origin: 178.78px 347.83px;" id="elr8ubadxfhp" class="animable"></path><g id="elsltprdpm05r"><path d="M180.81,348v-2.69c0-.55-.39-.77-.86-.5l-2.33,1.35a1.89,1.89,0,0,0-.87,1.5v2.69c0,.55.39.77.87.5l2.33-1.35A1.92,1.92,0,0,0,180.81,348Z" style="opacity: 0.2; transform-origin: 178.78px 347.83px;" class="animable"></path></g></g></g></g><g id="freepik--chart-1--inject-73" class="animable" style="transform-origin: 185.964px 168.809px;"><g id="freepik--window-chart--inject-73" class="animable" style="transform-origin: 185.964px 168.809px;"><g id="freepik--window--inject-73" class="animable" style="transform-origin: 185.964px 168.809px;"><path d="M296.12,23.88a3.31,3.31,0,0,0-3.44.28L73.19,150.8a10.47,10.47,0,0,0-4.73,8.2v6.83h0V306.31a5.32,5.32,0,0,0,0,.69A5,5,0,0,0,71,310.67l5,2.89.24.14a3.23,3.23,0,0,1-1.7-2.85V172h0v-9.57a10.52,10.52,0,0,1,4.74-8.22L298.74,27.59a3.46,3.46,0,0,1,3.19-.41C300.91,26.65,297,24.4,296.12,23.88Z" style="fill: rgb(38, 50, 56); transform-origin: 185.189px 168.613px;" id="el0uiof4oo55vn" class="animable"></path><path d="M303.45,29.73a1.56,1.56,0,0,0-.08-.43s0-.06,0-.09a2.13,2.13,0,0,0-.11-.42,2.25,2.25,0,0,0-.28-.61,1,1,0,0,0-.16-.25.75.75,0,0,0-.14-.17,1.14,1.14,0,0,0-.31-.31l0,0a2,2,0,0,0-.4-.24,3.46,3.46,0,0,0-3.19.41L79.26,154.22a10.52,10.52,0,0,0-4.74,8.22V310.85h0a3.25,3.25,0,0,0,4.87,2.81L298.74,187a10.48,10.48,0,0,0,4.74-8.21V30.33A5.74,5.74,0,0,0,303.45,29.73Z" style="fill: rgb(69, 90, 100); transform-origin: 189px 170.543px;" id="elrgqhvhffip" class="animable"></path><path d="M298.73,27.59,79.27,154.23a9.74,9.74,0,0,0-3.34,3.51l-6-3.49a9.49,9.49,0,0,1,3.3-3.46L292.68,24.16a3.33,3.33,0,0,1,3.44-.28c.85.52,4.79,2.76,5.79,3.29A3.45,3.45,0,0,0,298.73,27.59Z" style="fill: rgb(55, 71, 79); transform-origin: 185.92px 90.6343px;" id="elgfr3x5mb7q7" class="animable"></path></g><g id="freepik--chart--inject-73" class="animable" style="transform-origin: 190.084px 171.835px;"><path d="M91.57,288.36a.5.5,0,0,1-.25-.93l195-112.58a.5.5,0,0,1,.5.87l-195,112.57A.45.45,0,0,1,91.57,288.36Z" style="fill: rgb(250, 250, 250); transform-origin: 189.073px 231.572px;" id="elnwhr8bhra2b" class="animable"></path><path d="M91.57,290.8a.5.5,0,0,1-.5-.5v-4.7a.5.5,0,0,1,1,0v4.7A.5.5,0,0,1,91.57,290.8Z" style="fill: rgb(250, 250, 250); transform-origin: 91.57px 287.95px;" id="elwjjpbv7s6ys" class="animable"></path><path d="M124.07,271.94a.5.5,0,0,1-.5-.5v-4.69a.5.5,0,0,1,.5-.5.5.5,0,0,1,.5.5v4.69A.5.5,0,0,1,124.07,271.94Z" style="fill: rgb(250, 250, 250); transform-origin: 124.07px 269.095px;" id="elclztfoc6kk" class="animable"></path><path d="M156.56,253.09a.51.51,0,0,1-.5-.5V247.9a.5.5,0,0,1,.5-.5.5.5,0,0,1,.5.5v4.69A.5.5,0,0,1,156.56,253.09Z" style="fill: rgb(250, 250, 250); transform-origin: 156.56px 250.245px;" id="elopi0f6a94l" class="animable"></path><path d="M189.06,234.23a.5.5,0,0,1-.5-.5V229a.5.5,0,0,1,1,0v4.69A.5.5,0,0,1,189.06,234.23Z" style="fill: rgb(250, 250, 250); transform-origin: 189.061px 231.365px;" id="elquwj09idjz" class="animable"></path><path d="M221.56,215.38a.5.5,0,0,1-.5-.5v-4.69a.5.5,0,0,1,.5-.5.5.5,0,0,1,.5.5v4.69A.51.51,0,0,1,221.56,215.38Z" style="fill: rgb(250, 250, 250); transform-origin: 221.56px 212.535px;" id="elx27xkoh504f" class="animable"></path><path d="M254.05,196.52a.5.5,0,0,1-.5-.5v-4.69a.51.51,0,0,1,.5-.5.5.5,0,0,1,.5.5V196A.5.5,0,0,1,254.05,196.52Z" style="fill: rgb(250, 250, 250); transform-origin: 254.05px 193.675px;" id="el3x0gdsroa82" class="animable"></path><path d="M286.55,177.67a.5.5,0,0,1-.5-.5v-4.69a.5.5,0,1,1,1,0v4.69A.5.5,0,0,1,286.55,177.67Z" style="fill: rgb(250, 250, 250); transform-origin: 286.55px 174.825px;" id="elngnoq788ssh" class="animable"></path><path d="M91.57,241c16.25-9.38,20.31,11.73,32.5,4.69s4.06-49.25,24.37-61,16.25,28.14,36.56,16.41,12.18-86.77,32.49-98.49,16.26,47.47,36.56,35.46,8.13-70.64,32.5-84.71V165.91l-195,112.57Z" style="fill: rgb(186, 104, 200); transform-origin: 189.05px 165.92px;" id="elx0g3ge9kwg" class="animable"></path><g id="ela9wcp15zctw"><path d="M91.57,241c16.25-9.38,20.31,11.73,32.5,4.69s4.06-49.25,24.37-61,16.25,28.14,36.56,16.41,12.18-86.77,32.49-98.49,16.26,47.47,36.56,35.46,8.13-70.64,32.5-84.71V165.91l-195,112.57Z" style="opacity: 0.6; transform-origin: 189.05px 165.92px;" class="animable"></path></g><path d="M286.55,74.56v91.35l-195,112.57V264.41l14.34-14.49c.29.72,1,.92,1.91.42a4.49,4.49,0,0,0,2-3.52,1.44,1.44,0,0,0-.51-1.25l13.2-20.95a1.35,1.35,0,0,0,1.52-.08,4.26,4.26,0,0,0,1.62-1.87l13,3.75a3.82,3.82,0,0,0-.41,1.64c0,1.29.91,1.82,2,1.17a4.49,4.49,0,0,0,2-3.52,1.92,1.92,0,0,0-.21-.92l12.61-14.57c.32.59,1,.73,1.82.26a4.47,4.47,0,0,0,2-3.51,1.53,1.53,0,0,0-.42-1.17l13-18.79a1.3,1.3,0,0,0,1.62,0,4.51,4.51,0,0,0,2-3.52,2.2,2.2,0,0,0-.06-.53l12.31-10.67c.22.9,1,1.19,2,.65a4.51,4.51,0,0,0,2-3.52,1.81,1.81,0,0,0-.22-.92l12.62-14.58c.32.58,1,.71,1.81.25a4.11,4.11,0,0,0,1.44-1.51l13.37,7.72a4.22,4.22,0,0,0-.59,2c0,1.3.91,1.82,2,1.18a4.51,4.51,0,0,0,2-3.52,2.2,2.2,0,0,0-.06-.53l12.31-10.67c.22.9,1,1.19,2,.64a4.47,4.47,0,0,0,2-3.51,1.31,1.31,0,0,0-.77-1.38h0l13.72-27.71a1.54,1.54,0,0,0,1.27-.22,4.47,4.47,0,0,0,2-3.51h0l12.18-7c0,1.29.91,1.82,2,1.17a4.49,4.49,0,0,0,2-3.52,1.34,1.34,0,0,0-.76-1.39l13.66-27.61A1.5,1.5,0,0,0,286.55,74.56Z" style="fill: rgb(186, 104, 200); transform-origin: 189.05px 176.52px;" id="elya2rqxab2m" class="animable"></path><g id="els8gma2v57c"><path d="M286.55,74.56v91.35l-195,112.57V264.41l14.34-14.49c.29.72,1,.92,1.91.42a4.49,4.49,0,0,0,2-3.52,1.44,1.44,0,0,0-.51-1.25l13.2-20.95a1.35,1.35,0,0,0,1.52-.08,4.26,4.26,0,0,0,1.62-1.87l13,3.75a3.82,3.82,0,0,0-.41,1.64c0,1.29.91,1.82,2,1.17a4.49,4.49,0,0,0,2-3.52,1.92,1.92,0,0,0-.21-.92l12.61-14.57c.32.59,1,.73,1.82.26a4.47,4.47,0,0,0,2-3.51,1.53,1.53,0,0,0-.42-1.17l13-18.79a1.3,1.3,0,0,0,1.62,0,4.51,4.51,0,0,0,2-3.52,2.2,2.2,0,0,0-.06-.53l12.31-10.67c.22.9,1,1.19,2,.65a4.51,4.51,0,0,0,2-3.52,1.81,1.81,0,0,0-.22-.92l12.62-14.58c.32.58,1,.71,1.81.25a4.11,4.11,0,0,0,1.44-1.51l13.37,7.72a4.22,4.22,0,0,0-.59,2c0,1.3.91,1.82,2,1.18a4.51,4.51,0,0,0,2-3.52,2.2,2.2,0,0,0-.06-.53l12.31-10.67c.22.9,1,1.19,2,.64a4.47,4.47,0,0,0,2-3.51,1.31,1.31,0,0,0-.77-1.38h0l13.72-27.71a1.54,1.54,0,0,0,1.27-.22,4.47,4.47,0,0,0,2-3.51h0l12.18-7c0,1.29.91,1.82,2,1.17a4.49,4.49,0,0,0,2-3.52,1.34,1.34,0,0,0-.76-1.39l13.66-27.61A1.5,1.5,0,0,0,286.55,74.56Z" style="opacity: 0.3; transform-origin: 189.05px 176.52px;" class="animable"></path></g><path d="M91.57,264.91a.49.49,0,0,1-.35-.15.5.5,0,0,1,0-.71l14.34-14.49a.5.5,0,0,1,.71,0,.5.5,0,0,1,0,.71l-14.34,14.5A.51.51,0,0,1,91.57,264.91Z" style="fill: rgb(250, 250, 250); transform-origin: 98.745px 257.161px;" id="elyfpkvrt1fog" class="animable"></path><path d="M109.34,246.07a.42.42,0,0,1-.26-.08.49.49,0,0,1-.16-.69l13.2-21a.49.49,0,0,1,.69-.16.51.51,0,0,1,.16.69l-13.2,21A.51.51,0,0,1,109.34,246.07Z" style="fill: rgb(250, 250, 250); transform-origin: 115.941px 235.065px;" id="elkay2s2v9gb" class="animable"></path><path d="M138.69,226.91a.36.36,0,0,1-.14,0l-13-3.75a.5.5,0,0,1,.28-1l13,3.75a.5.5,0,0,1,.34.62A.49.49,0,0,1,138.69,226.91Z" style="fill: rgb(250, 250, 250); transform-origin: 132.18px 224.529px;" id="eln8w69ghh51g" class="animable"></path><path d="M142.12,225.3a.45.45,0,0,1-.32-.13.49.49,0,0,1-.06-.7l12.63-14.58a.49.49,0,0,1,.7,0,.51.51,0,0,1,.05.71L142.5,225.12A.49.49,0,0,1,142.12,225.3Z" style="fill: rgb(250, 250, 250); transform-origin: 148.43px 217.521px;" id="elcinr0yj3kgb" class="animable"></path><path d="M158.19,206.28a.52.52,0,0,1-.29-.09.51.51,0,0,1-.12-.7l13-18.76a.49.49,0,0,1,.69-.13.5.5,0,0,1,.13.7l-13,18.76A.5.5,0,0,1,158.19,206.28Z" style="fill: rgb(250, 250, 250); transform-origin: 164.69px 196.395px;" id="el683pjg9bw35" class="animable"></path><path d="M174.78,183.46a.52.52,0,0,1-.38-.17.51.51,0,0,1,0-.71l12.32-10.66a.49.49,0,0,1,.7.05.51.51,0,0,1-.05.71l-12.31,10.66A.52.52,0,0,1,174.78,183.46Z" style="fill: rgb(250, 250, 250); transform-origin: 180.898px 177.628px;" id="elhja66642mgc" class="animable"></path><path d="M190.87,169a.49.49,0,0,1-.37-.82l12.62-14.58a.5.5,0,0,1,.76.65l-12.63,14.58A.52.52,0,0,1,190.87,169Z" style="fill: rgb(250, 250, 250); transform-origin: 197.186px 161.213px;" id="elx096uo76pl" class="animable"></path><path d="M220.12,160.89a.55.55,0,0,1-.25-.07l-13.38-7.72a.51.51,0,0,1-.18-.69.49.49,0,0,1,.68-.18L220.37,160a.51.51,0,0,1,.18.69A.5.5,0,0,1,220.12,160.89Z" style="fill: rgb(250, 250, 250); transform-origin: 213.43px 156.525px;" id="eltiae17g5m38" class="animable"></path><path d="M223.53,160a.52.52,0,0,1-.38-.17.51.51,0,0,1,0-.71l12.3-10.65a.5.5,0,1,1,.66.75l-12.31,10.66A.49.49,0,0,1,223.53,160Z" style="fill: rgb(250, 250, 250); transform-origin: 229.651px 154.165px;" id="elqgesve9nhe" class="animable"></path><path d="M239.07,145.09a.43.43,0,0,1-.22-.06.5.5,0,0,1-.23-.67l13.69-27.65a.49.49,0,0,1,.67-.22.5.5,0,0,1,.22.67l-13.68,27.65A.52.52,0,0,1,239.07,145.09Z" style="fill: rgb(250, 250, 250); transform-origin: 245.911px 130.762px;" id="elf6uyd19ffo" class="animable"></path><path d="M256.08,113.64a.5.5,0,0,1-.25-.93l12.19-7a.49.49,0,0,1,.68.18.51.51,0,0,1-.18.69l-12.19,7A.45.45,0,0,1,256.08,113.64Z" style="fill: rgb(250, 250, 250); transform-origin: 262.176px 109.64px;" id="el59urwoyzs2q" class="animable"></path><path d="M271.57,102.87a.48.48,0,0,1-.23-.05.5.5,0,0,1-.22-.67l13.67-27.62a.5.5,0,1,1,.89.44L272,102.59A.48.48,0,0,1,271.57,102.87Z" style="fill: rgb(250, 250, 250); transform-origin: 278.414px 88.5334px;" id="elkj1jndcgq3j" class="animable"></path><path d="M106.91,251.11a1.51,1.51,0,0,1-.78-.2,1.92,1.92,0,0,1-.84-1.75,5,5,0,0,1,2.28-3.95h0a1.73,1.73,0,0,1,2.78,1.61,5,5,0,0,1-2.28,4A2.33,2.33,0,0,1,106.91,251.11Zm1.16-5a4,4,0,0,0-1.78,3.08c0,.44.12.76.34.88a1,1,0,0,0,.94-.14,4,4,0,0,0,1.78-3.08.76.76,0,0,0-1.28-.74Z" style="fill: rgb(250, 250, 250); transform-origin: 107.826px 247.976px;" id="elh3euiymi4mg" class="animable"></path><path d="M123.16,225.32a1.52,1.52,0,0,1-.78-.21,1.9,1.9,0,0,1-.84-1.75,5,5,0,0,1,2.28-4h0A1.73,1.73,0,0,1,126.6,221a5,5,0,0,1-2.28,3.95A2.38,2.38,0,0,1,123.16,225.32Zm1.16-5a4,4,0,0,0-1.78,3.08,1,1,0,0,0,.34.89,1,1,0,0,0,.94-.15A4,4,0,0,0,125.6,221a1,1,0,0,0-.35-.88,1,1,0,0,0-.93.14Z" style="fill: rgb(250, 250, 250); transform-origin: 124.078px 222.153px;" id="eliws9eptmxw" class="animable"></path><path d="M139.41,230a1.52,1.52,0,0,1-.78-.21,1.88,1.88,0,0,1-.85-1.75,5,5,0,0,1,2.29-4,1.73,1.73,0,0,1,2.78,1.61,5,5,0,0,1-2.28,3.95A2.38,2.38,0,0,1,139.41,230Zm1.81-5.25a1.33,1.33,0,0,0-.65.21,4,4,0,0,0-1.79,3.08,1,1,0,0,0,.35.89,1,1,0,0,0,.94-.14,4,4,0,0,0,1.78-3.09,1,1,0,0,0-.35-.88A.51.51,0,0,0,141.22,224.76Z" style="fill: rgb(250, 250, 250); transform-origin: 140.32px 226.835px;" id="elk7pg746d1x8" class="animable"></path><path d="M155.66,211.26a1.59,1.59,0,0,1-.78-.2,1.9,1.9,0,0,1-.85-1.75,5,5,0,0,1,2.28-3.95h0a1.73,1.73,0,0,1,2.78,1.6,5,5,0,0,1-2.28,3.95A2.34,2.34,0,0,1,155.66,211.26Zm1.15-5a4,4,0,0,0-1.78,3.09.76.76,0,0,0,1.28.74,4,4,0,0,0,1.78-3.09,1,1,0,0,0-.34-.88,1,1,0,0,0-.94.14Z" style="fill: rgb(250, 250, 250); transform-origin: 156.565px 208.126px;" id="elgmd0qpxq2qp" class="animable"></path><path d="M171.9,187.79a1.55,1.55,0,0,1-.77-.2,1.9,1.9,0,0,1-.85-1.75,5,5,0,0,1,2.28-4h0a1.73,1.73,0,0,1,2.78,1.61,5,5,0,0,1-2.28,3.95A2.33,2.33,0,0,1,171.9,187.79Zm1.16-5a4,4,0,0,0-1.78,3.08,1,1,0,0,0,.35.88,1,1,0,0,0,.93-.14,4,4,0,0,0,1.78-3.08,1,1,0,0,0-.34-.89,1,1,0,0,0-.94.15Z" style="fill: rgb(250, 250, 250); transform-origin: 172.816px 184.63px;" id="el9u1lv44266t" class="animable"></path><path d="M188.15,173.72a1.62,1.62,0,0,1-.78-.2,1.92,1.92,0,0,1-.84-1.75,5,5,0,0,1,2.28-4h0a1.73,1.73,0,0,1,2.78,1.6,5,5,0,0,1-2.28,4A2.33,2.33,0,0,1,188.15,173.72Zm1.16-5a4,4,0,0,0-1.78,3.09,1,1,0,0,0,.34.88,1,1,0,0,0,.94-.14,4,4,0,0,0,1.78-3.09,1,1,0,0,0-.34-.88,1,1,0,0,0-.94.14Z" style="fill: rgb(250, 250, 250); transform-origin: 189.065px 170.561px;" id="el9v1nh0t01jj" class="animable"></path><path d="M220.65,164.34a1.62,1.62,0,0,1-.78-.2,1.9,1.9,0,0,1-.84-1.75,5,5,0,0,1,2.28-3.95,1.73,1.73,0,0,1,2.78,1.6,5,5,0,0,1-2.28,4A2.38,2.38,0,0,1,220.65,164.34Zm1.81-5.25a1.44,1.44,0,0,0-.65.21,4,4,0,0,0-1.78,3.09,1,1,0,0,0,.34.88,1,1,0,0,0,.94-.14,4,4,0,0,0,1.78-3.09,1,1,0,0,0-.35-.88A.61.61,0,0,0,222.46,159.09Z" style="fill: rgb(250, 250, 250); transform-origin: 221.564px 161.206px;" id="el9gz8ua2api7" class="animable"></path><path d="M236.9,150.27a1.5,1.5,0,0,1-.78-.21,1.88,1.88,0,0,1-.85-1.74,5,5,0,0,1,2.28-3.95h0a1.72,1.72,0,0,1,2.78,1.6,5,5,0,0,1-2.28,3.95A2.31,2.31,0,0,1,236.9,150.27Zm1.15-5a4,4,0,0,0-1.78,3.09.76.76,0,0,0,1.28.74,4,4,0,0,0,1.78-3.09,1,1,0,0,0-.34-.88,1,1,0,0,0-.94.14Z" style="fill: rgb(250, 250, 250); transform-origin: 237.806px 147.129px;" id="elwspui3xmv0i" class="animable"></path><path d="M269.39,108.05a1.51,1.51,0,0,1-.78-.2,1.9,1.9,0,0,1-.84-1.75,5,5,0,0,1,2.28-3.95h0A1.93,1.93,0,0,1,272,102a1.91,1.91,0,0,1,.84,1.75,5,5,0,0,1-2.28,3.95A2.33,2.33,0,0,1,269.39,108.05Zm1.16-5a4,4,0,0,0-1.78,3.08c0,.44.12.76.34.88a1,1,0,0,0,.94-.14,4,4,0,0,0,1.78-3.08,1,1,0,0,0-.34-.88,1,1,0,0,0-.94.14Z" style="fill: rgb(250, 250, 250); transform-origin: 270.305px 104.927px;" id="elr3kcp0rnmh8" class="animable"></path><path d="M253.14,117.44a1.49,1.49,0,0,1-.77-.21,1.88,1.88,0,0,1-.85-1.75,5,5,0,0,1,2.28-4h0a1.73,1.73,0,0,1,2.78,1.61,5,5,0,0,1-2.28,4A2.35,2.35,0,0,1,253.14,117.44Zm1.16-5a4,4,0,0,0-1.78,3.08.76.76,0,0,0,1.28.74,4,4,0,0,0,1.78-3.08.76.76,0,0,0-1.28-.74Z" style="fill: rgb(250, 250, 250); transform-origin: 254.055px 114.275px;" id="elpowha372tu" class="animable"></path><path d="M285.64,75.34a1.52,1.52,0,0,1-.78-.21,1.89,1.89,0,0,1-.84-1.74,5,5,0,0,1,2.28-4A1.73,1.73,0,0,1,289.08,71,5,5,0,0,1,286.8,75,2.35,2.35,0,0,1,285.64,75.34Zm1.82-5.25a1.36,1.36,0,0,0-.66.21A4,4,0,0,0,285,73.39a1,1,0,0,0,.34.88,1,1,0,0,0,.94-.14A4,4,0,0,0,288.08,71a1,1,0,0,0-.34-.88A.53.53,0,0,0,287.46,70.09Z" style="fill: rgb(250, 250, 250); transform-origin: 286.555px 72.1805px;" id="el38x2dn56ey3" class="animable"></path><path d="M204.4,155a1.62,1.62,0,0,1-.78-.2,1.92,1.92,0,0,1-.84-1.75,5,5,0,0,1,2.28-3.95h0a1.72,1.72,0,0,1,2.78,1.6,5,5,0,0,1-2.28,4A2.35,2.35,0,0,1,204.4,155Zm1.81-5.25a1.36,1.36,0,0,0-.65.21h0a4,4,0,0,0-1.78,3.09,1,1,0,0,0,.34.88,1,1,0,0,0,.94-.14,4,4,0,0,0,1.78-3.09,1,1,0,0,0-.35-.88A.51.51,0,0,0,206.21,149.71Zm-.9-.22h0Z" style="fill: rgb(250, 250, 250); transform-origin: 205.317px 151.859px;" id="el2ki6yhyf6yg" class="animable"></path><path d="M119.12,247.62c-3.36,0-6.17-2-9.09-4.1-4.81-3.44-9.78-7-18.21-2.13l-.5-.87c9-5.19,14.46-1.27,19.29,2.19,4.2,3,7.83,5.6,13.21,2.5,5.11-3,6.52-12.47,8.16-23.5,2.13-14.41,4.55-30.75,16.21-37.47,10.59-6.12,14.85,1.26,19,8.39,2,3.41,4,6.93,6.71,8.78,3,2,6.46,1.8,10.89-.76,9.94-5.74,13-27.67,16-48.88,3-21.45,6.13-43.63,16.49-49.62,2.83-1.63,5.41-2,7.68-1.17,5.4,2,8.41,10.78,11.32,19.24,2.82,8.24,5.75,16.76,10.69,18.58,2,.74,4.27.36,6.87-1.18,9.48-5.61,11.74-21.71,14.13-38.75,2.66-18.92,5.41-38.48,18.37-46l.5.87C274.26,61,271.55,80.33,268.92,99c-2.43,17.29-4.72,33.62-14.61,39.47-2.84,1.68-5.44,2.1-7.73,1.26-5.38-2-8.39-10.73-11.29-19.19-2.83-8.25-5.76-16.78-10.72-18.63-2-.75-4.24-.39-6.83,1.1-9.94,5.74-13,27.67-16,48.89-3,21.44-6.13,43.62-16.49,49.61-4.74,2.73-8.65,3-12,.71-2.88-2-5-5.59-7-9.1-4-7-7.87-13.64-17.6-8-11.24,6.49-13.62,22.57-15.73,36.76-1.67,11.28-3.11,21-8.64,24.22A10.25,10.25,0,0,1,119.12,247.62Z" style="fill: rgb(250, 250, 250); transform-origin: 189.08px 150.245px;" id="elire14wzan4" class="animable"></path><path d="M218.66,98.37c1.75-1,3.17-.19,3.17,1.83a7,7,0,0,1-3.17,5.49c-1.75,1-3.17.19-3.17-1.83A7,7,0,0,1,218.66,98.37Z" style="fill: rgb(250, 250, 250); transform-origin: 218.66px 102.03px;" id="elyxw1kwjj78d" class="animable"></path><path d="M152.5,150a.5.5,0,0,1-.25-.93l32.34-18.67,4-11.55a.46.46,0,0,1,.22-.27l16.25-9.38a.5.5,0,0,1,.5.86l-16.09,9.29-4,11.55a.49.49,0,0,1-.22.27l-32.5,18.76A.45.45,0,0,1,152.5,150Z" style="fill: rgb(186, 104, 200); transform-origin: 178.886px 129.578px;" id="eli723wxs2qhl" class="animable"></path><path d="M153.41,142a4.65,4.65,0,0,1,2.16-3.59l24.11-13.92c1.19-.69,2.16-.2,2.16,1.1a4.65,4.65,0,0,1-2.16,3.59l-24.11,13.92C154.38,143.74,153.41,143.25,153.41,142Z" style="fill: rgb(186, 104, 200); transform-origin: 167.625px 133.779px;" id="elk18bu5lbwpb" class="animable"></path></g></g></g><g id="freepik--Character--inject-73" class="animable animator-hidden" style="transform-origin: 380.476px 228.244px;"><g id="freepik--character--inject-73" class="animable" style="transform-origin: 380.476px 228.244px;"><path id="freepik--Hair--inject-73" d="M418.53,84.07c8.59,3.84,8.08,11.65,8.06,27.2s0,40.23,0,40.23h-40V84.07Z" style="fill: rgb(38, 50, 56); transform-origin: 406.596px 117.785px;" class="animable"></path><path id="freepik--Arm--inject-73" d="M372.75,134.51l-21.28,14.91c-1.71-2.6-10.85-15.43-12.58-18.32a26.16,26.16,0,0,1-2.9-7.83,40.83,40.83,0,0,0-1-4,14.85,14.85,0,0,0-1.09-2.85c-.56-1-1.08-2-1.62-3a1.4,1.4,0,0,0-.37-.47,1,1,0,0,0-1.21.19,2.78,2.78,0,0,0-.84,2.08,9.9,9.9,0,0,0,.34,2.28,5.71,5.71,0,0,1,.13,2.29,3.6,3.6,0,0,1-2.45-1.09,38.48,38.48,0,0,1-6-6.13,32.31,32.31,0,0,0-2.4-2.81,2.73,2.73,0,0,0-1.86-.7,2.79,2.79,0,0,0-1.68.82,5.64,5.64,0,0,0-1.52,2.83,10.67,10.67,0,0,0-.15,3.24,15.1,15.1,0,0,0,.78,4.35,12.86,12.86,0,0,0,1.4,2.86,24.78,24.78,0,0,0,5.43,5.89c1.16,1,3.48,2.11,4.54,3.17a15,15,0,0,1,2.88,4.29c.58,1.07,1.11,2.17,1.67,3.26,2.71,5.38,8.89,17.55,12.44,22.05s6.82,3.21,13.09.52,29.6-16.08,29.6-16.08l4.86-20.67C389,125.56,384.45,126,372.75,134.51Z" style="fill: rgb(255, 168, 167); transform-origin: 352.585px 136.922px;" class="animable"></path><path d="M380.5,162.35c.16,3.61.82,16.29.82,16.29,14.61,10.08,39.65,2.8,39.65,2.8,1.16-8.13,3.26-19.54,6.29-27.5,0,0-11.47-15.84-4.17-27.09L409.78,126l-12.48-.17-6.38-.17c-6.11,6.8-11.88,14.58-13.35,18.26S374.11,154.74,380.5,162.35Z" style="fill: rgb(186, 104, 200); transform-origin: 401.668px 154.821px;" id="elcy3ed9bf2cn" class="animable"></path><g id="elepbj9o976kg"><path d="M380.5,162.35c.16,3.61.82,16.29.82,16.29,14.61,10.08,39.65,2.8,39.65,2.8,1.16-8.13,3.26-19.54,6.29-27.5,0,0-11.47-15.84-4.17-27.09L409.78,126l-12.48-.17-6.38-.17c-6.11,6.8-11.88,14.58-13.35,18.26S374.11,154.74,380.5,162.35Z" style="fill: rgb(255, 255, 255); opacity: 0.75; transform-origin: 401.668px 154.821px;" class="animable"></path></g><path d="M434.72,346a85.26,85.26,0,0,1,1.85,9c.51,3.42.83,6,1.95,11.8,1,5.32,2.29,9.27-1.64,13.83-3.21,3.74-10.31,4.68-12.37.7-2.35-4.56-1.19-11.08-.95-15.72s-.38-6.94-.39-10.63c0-3.26.13-4.59.27-7.4C427.14,347.32,431,346.3,434.72,346Z" style="fill: rgb(55, 71, 79); transform-origin: 431.307px 364.954px;" id="elr707fkqaid" class="animable"></path><path d="M394.21,317.41a140.39,140.39,0,0,0-2.2,14.51c-.5,5.42-.84,6.62.32,8.36l0,0c1.34,2,2.36,3.88,2.2,5.19-.2,1.57-1.32,2.93-2.25,4.18a21.33,21.33,0,0,0-2,3.71,41,41,0,0,0-2.8,9.62,11.89,11.89,0,0,1-.87,2.91c-1.52,3.15-5.31,4.65-8.86,5.22s-7.37.9-10.8-.13c-1.45-.44-2.71-1.11-2.87-2.78s.93-2.52,3.1-4.28a29.4,29.4,0,0,0,3-2.74,10.22,10.22,0,0,0,1.65-2.43,72.4,72.4,0,0,0,4.53-10.29,32.47,32.47,0,0,0,2.27-10.17c.15-4,0-13.73-.22-21,0-.12,0-.24,0-.36v.36c-.49-9.8-1-28.52-1.51-41.3-1-24,5.12-88.46,5.12-88.46l-.41-1-.19-2.56s2.81,4.43,16.1,4.1a132.12,132.12,0,0,0,23.34-3c1.76,4.78,6.29,6.71,9.34,15.68,3.54,10.45,1.5,41.37,0,74.55,2.85,13.73,4.62,20.12,4.76,27.31.18,9.48.22,16.46-.12,25.43-.3,7.69-.27,13.5-.15,17.86.17,6,2.35,15.8,1.51,20.44-1.26,7-9.65,9.51-10.89,1.65-.77-4.91-1.35-15.72-2-21.09-.71-6.19-1.62-11.3-3.05-18.91s-10.15-37.16-12.13-51.31c-1.34-9.6-3-23.76-5.33-35.52-1.31,6.68-4.82,25.33-5.47,33.54,1.8,7.78.81,12.8.28,19.95C397.09,302.71,394.85,311.45,394.21,317.41Z" style="fill: rgb(255, 168, 167); transform-origin: 400.228px 278.407px;" id="el144u01pzf7w" class="animable"></path><path d="M391.46,366.69l-1.26-.2c0-3.84.26-7.35-.7-9.18l1.88-4.69Z" style="fill: rgb(38, 50, 56); transform-origin: 390.48px 359.655px;" id="eln7uo9ld3wvp" class="animable"></path><path d="M394.86,349.23c-.32,2.63-1.92,5.32-2.11,10.5a43.26,43.26,0,0,0,0,6.64l-1.32.32-.08-14.07Z" style="fill: rgb(38, 50, 56); transform-origin: 393.105px 357.96px;" id="elgsaevgax0md" class="animable"></path><path d="M364.45,369.87s0,1.54.71,2.05,2.1,2.05,9.13,1.75,9.51-1.95,11.94-4,3.15-7.6,3.55-10.21c.78-5.05,3-7.67,5.08-10.2a4.28,4.28,0,0,0,.25-2.62s-4.74.78-7.35,6.94-5.75,12.16-11.45,13.8A101.27,101.27,0,0,1,364.45,369.87Z" style="fill: rgb(38, 50, 56); transform-origin: 379.83px 360.174px;" id="elpqe3t89uh" class="animable"></path><path d="M394.56,342.75c-1-1.71-1.88-2.2-2.82-3.68a7.27,7.27,0,0,0-2.32,3.54c-.45,1.35-1.68,8-3.46,13.23-1.34,4-3.51,6-6.46,7.06a12.15,12.15,0,0,1-5.8.55h0c-3.64-.53-2.75-3.05-2.75-3.05-.87,1.11-4.38,3.8-6.48,5.78-1.18,1.13-.66,2.87.21,4,1,.85,3.35,2.57,12.08,1.47,7.76-1,9.62-4.4,10.38-5.95a35.8,35.8,0,0,0,1.72-7,21.54,21.54,0,0,1,2.83-7.39c.18-.28.35-.55.52-.78h0c.53-.73,1.16-1.54,1.87-2.34.55-.62,1-.91,1.15-1.51A5.56,5.56,0,0,0,394.56,342.75Z" style="fill: rgb(55, 71, 79); transform-origin: 379.561px 355.538px;" id="el1ijkvxw987f" class="animable"></path><path d="M435.43,302.89c-.14-7.19-.42-13.93-4.37-27.42,1.54-33.18,2.32-64.27-.43-74.94-2.12-8.19-3.69-10.94-7.36-16.84,0,0-14,4.15-25.68,4.43-13.29.33-16.1-4.1-16.1-4.1l-.35,2.26-.11,2.1s-5.74,64.18-4.48,86c.74,12.73.87,34.68,1.34,45.93,3.65,2.5,11.83,3.67,16.12,1.3,1.21-7.92,3.39-17.42,4.53-25.92,1-7.11,1.27-13.23-.53-21,1-7.85,4.08-24,5.39-30.66,1.61,12.53,3.46,23.08,4.8,32.68,2,14.15,9.25,41,11,48.53,2.79,1.89,11.87,2.59,16.1-.77C435.61,315.54,435.61,312.37,435.43,302.89Z" style="fill: rgb(69, 90, 100); transform-origin: 405.961px 255.257px;" id="elxy3k8jdnhb" class="animable"></path><path d="M403.4,244.06l-3.6-24.78s-8.7-3.1-13.54-7.34c0,0,2.55,5.27,10.52,9l4.54,23.69-2.82,26.66Z" style="fill: rgb(55, 71, 79); transform-origin: 394.83px 241.615px;" id="elrn09a2bovvb" class="animable"></path><path d="M421.45,179.19s.14,1.95,3.93,8.23a68.43,68.43,0,0,1-23.73,6.27c-13.18.89-20.62-5.31-20.62-5.31s.28-5.43.2-8.49c0,0,4.71,4.26,17.7,4A61.3,61.3,0,0,0,421.45,179.19Z" style="fill: rgb(55, 71, 79); transform-origin: 403.205px 186.484px;" id="el4kxlpd7cfw" class="animable"></path><g id="freepik--Head--inject-73" class="animable" style="transform-origin: 398.34px 114.75px;"><path d="M394.87,125.56l-2.37.09a28.43,28.43,0,0,0-8,13.31c-1.61,6.5.88,7.8.88,7.8s-3.14,8.38.24,10.15c2.23-5,10.73-29.36,10.73-29.36Z" style="fill: rgb(55, 71, 79); transform-origin: 390.154px 141.235px;" id="eli23bjbnd5am" class="animable"></path><path d="M410.28,125.64l6.24.78s-1.85,8-7.84,13.33a32.83,32.83,0,0,1-13.42,7s.12,4.27-2.13,6.87-7.54,3.3-7.54,3.3a39.29,39.29,0,0,1,2.47-7.92C391.56,141,410.28,125.64,410.28,125.64Z" style="fill: rgb(69, 90, 100); transform-origin: 401.055px 141.28px;" id="elwi8l86c4vln" class="animable"></path><path d="M419.46,85.72c-1.52-6.45-5.31-10.53-14.58-11.8-6.13-1.3-9.38.26-16.31-.86-3.14-.51-6-.81-8.18.14-2.47,1.08-4,3.65-3.88,7.09a7.37,7.37,0,0,0,2,4.86c-2.39,3.34-.46,9.21,4.64,10.77l4.29,17.66s22.15,10.06,22.37,6.11C414.52,112.06,422.63,99.12,419.46,85.72Z" style="fill: rgb(38, 50, 56); transform-origin: 398.34px 96.595px;" id="el73u3fgxnzu" class="animable"></path><path d="M410.28,126.4l.15-17.42s2.13,2.36,5.55.13c3.06-2,4.55-6.58,2.62-9.08-1.38-1.77-5.86-3-7.83.6,0,0-5.24-.54-11.83-5.78s-8-9.63-12.16-10.34c-2,1.4-4.21,5.73-4.65,17.44-.32,8.67,3.33,13,5.23,14.61,1.55,1.3,3.6,1.58,7.12,1.2l-.07,8.23c-4.29,7.71-4.91,13.14-4.89,20.32C397,139.09,401.54,133.11,410.28,126.4Z" style="fill: rgb(255, 168, 167); transform-origin: 400.787px 115.41px;" id="elfa8u1xw0dak" class="animable"></path><path d="M397.08,99.09a1.58,1.58,0,0,0,1.4,1.76,1.61,1.61,0,1,0-1.4-1.76Z" style="fill: rgb(38, 50, 56); transform-origin: 398.68px 99.2527px;" id="ell0zd9fgex7" class="animable"></path><path d="M384.2,95.17l3.38-2.08a2,2,0,0,0-2.7-.67A2,2,0,0,0,384.2,95.17Z" style="fill: rgb(38, 50, 56); transform-origin: 385.745px 93.6599px;" id="elxrz3fjxn2t" class="animable"></path><path d="M396.78,108.36l-4.23,1.34a2.17,2.17,0,0,0,2.75,1.46A2.27,2.27,0,0,0,396.78,108.36Z" style="fill: rgb(242, 143, 143); transform-origin: 394.711px 109.812px;" id="elv5ns3unbuko" class="animable"></path><path d="M385.05,98.53a1.59,1.59,0,0,0,1.4,1.77,1.62,1.62,0,1,0-1.4-1.77Z" style="fill: rgb(38, 50, 56); transform-origin: 386.66px 98.6939px;" id="el569uadt0eoe" class="animable"></path><polygon points="392.95 97.77 392.26 106.25 387.77 104.62 392.95 97.77" style="fill: rgb(242, 143, 143); transform-origin: 390.36px 102.01px;" id="elczjyrlpe9cn" class="animable"></polygon><path d="M394.48,117.76c3.71-.27,11.4-2,12.74-4.86a7.66,7.66,0,0,1-2.86,3.6c-2.37,1.78-9.9,3.6-9.9,3.6Z" style="fill: rgb(242, 143, 143); transform-origin: 400.84px 116.5px;" id="ellrakxttic4m" class="animable"></path><path d="M410.81,99.82l-.26,4.8h0a3.39,3.39,0,0,1-3.24-3.54l.26-4.64Z" style="fill: rgb(38, 50, 56); transform-origin: 409.058px 100.53px;" id="el9lsfybgjwad" class="animable"></path></g><g id="freepik--arm--inject-73" class="animable" style="transform-origin: 405.146px 166.085px;"><polygon points="363.55 165 400.29 164.02 411.19 205.32 376.26 205.32 363.55 165" style="fill: rgb(186, 104, 200); transform-origin: 387.37px 184.67px;" id="elca7paycdei7" class="animable"></polygon><g id="eljxa6lhdp37"><polygon points="363.55 165 400.29 164.02 411.19 205.32 376.26 205.32 363.55 165" style="opacity: 0.2; transform-origin: 387.37px 184.67px;" class="animable"></polygon></g><g id="elfsdf51gdu7u"><path d="M394.45,189.45c-.14.86.54,2,2.33,3.25,1.45,1,2.51,2.92,4.84,3.26,4.76.68,7.05-.19,7.05-.19l-1.49-5.65Z" style="opacity: 0.15; transform-origin: 401.551px 192.835px;" class="animable"></path></g><g id="ele8mmfxv1bjn"><path d="M374.31,168.38s-.13-.57-.3-1.28,2-1.34,4.81-1.43l5.42-.17c2.82-.08,5.25.42,5.42,1.13l.3,1.27Z" style="opacity: 0.15; transform-origin: 381.98px 166.936px;" class="animable"></path></g><path d="M371.76,164c-.11-.44.77-.81,1.95-.83l2.14,0s-.64-2.77,4.12-3.08,5.8,2.74,5.8,2.74l2.29,0c1.26,0,2.41.33,2.56.76l.27.77-18.93.51S371.87,164.4,371.76,164Z" style="fill: rgb(38, 50, 56); transform-origin: 381.32px 162.469px;" id="elrdaseq3j1x" class="animable"></path><path d="M374.37,164.69c1.73-.08,2.45-.06,2.71,1,.3,1.24.42,2.18.42,2.18l8.38-.22s-.41-1.56-.54-2.18.16-1.09,1.49-1.12l.11-.56-13.12.46Z" style="fill: rgb(38, 50, 56); transform-origin: 380.38px 165.83px;" id="el2iwdm1rv0mg" class="animable"></path><path d="M374.08,168.57s-.13-.57-.3-1.27,2-1.35,4.81-1.44l5.42-.16c2.83-.09,5.25.41,5.42,1.12l.31,1.28Z" style="fill: rgb(55, 71, 79); transform-origin: 381.755px 167.13px;" id="el0x2r467szkz" class="animable"></path><path d="M405.05,182.05l.1.36a2.25,2.25,0,0,1-.44.14,32.82,32.82,0,0,1-5.78.34c-1.69-.06-3.38-.23-5.07-.39a2.15,2.15,0,0,0-1,.05,1.55,1.55,0,0,0-.7,1.88,9.21,9.21,0,0,0,1.05,1.92c.67,1.15.88,2.45,1.6,3.57,2.48,3.85,6.84,5.36,17.17,2.72,3-.76,6.28-2.46,10.07-3.34,7.79-1.78,13-3.34,19.4-5.42s5.54-5.43,4.75-10.65c-.93-6.09-4.41-20.43-8.15-32.71-4-13.08-7-13.19-15-13.67-8.18,11.74,2.4,26.93,2.4,26.93l6.71,19.47s-9.69,4.58-16.45,6.13a10.92,10.92,0,0,1-3.27.57c-2.27-.14-5.91-2.13-8.51-2Z" style="fill: rgb(255, 168, 167); transform-origin: 419.405px 160.407px;" id="elfgmoxru1ym" class="animable"></path></g></g></g><g id="freepik--magnifying-glass--inject-73" class="animable" style="transform-origin: 225.4px 400.994px;"><g id="freepik--Glass--inject-73" class="animable" style="transform-origin: 225.4px 400.994px;"><path d="M304.42,378.05c0-7-4.62-14-13.87-19.35C272,348,242,348,223.53,358.7c-9.25,5.35-13.88,12.35-13.88,19.35h0V391c0,7,4.63,14,13.88,19.34,18.51,10.68,48.51,10.68,67,0C299.8,405,304.42,398,304.42,391v-12.9Zm-78.6-15.38c8.27-4.77,19.35-7.4,31.22-7.4s22.95,2.63,31.21,7.4c7.48,4.32,11.59,9.78,11.59,15.38s-4.11,11.06-11.59,15.38c-8.26,4.77-19.35,7.39-31.21,7.39s-23-2.62-31.22-7.39c-7.47-4.32-11.58-9.78-11.58-15.38S218.35,367,225.82,362.67Z" style="fill: rgb(186, 104, 200); transform-origin: 257.035px 384.512px;" id="elpnw4up6madk" class="animable"></path><g id="eljt5i3qsbhw"><path d="M255.5,405.39v12.88c12.63.23,25.4-2.41,35.05-8,9.25-5.35,13.88-12.36,13.88-19.35v-12.9a11.8,11.8,0,0,0-.07-1.32c.61,7.43-4,15-13.82,20.67C280.9,403,268.13,405.62,255.5,405.39Z" style="opacity: 0.05; transform-origin: 279.965px 397.492px;" class="animable"></path></g><g id="el1odqasg461z"><path d="M223.53,397.39c18.51,10.69,48.51,10.69,67,0s18.51-28,0-38.69-48.5-10.68-67,0S205,386.71,223.53,397.39Zm-9.3-19.34c0-5.6,4.12-11.06,11.59-15.38,8.27-4.77,19.35-7.4,31.22-7.4s22.95,2.63,31.21,7.4c7.47,4.32,11.59,9.78,11.59,15.38s-4.12,11.06-11.59,15.38c-8.26,4.77-19.35,7.39-31.21,7.39s-23-2.62-31.22-7.39C218.35,389.11,214.23,383.65,214.23,378.05Z" style="fill: rgb(255, 255, 255); opacity: 0.6; transform-origin: 257.024px 378.047px;" class="animable"></path></g><path d="M214.23,378.05a12.69,12.69,0,0,0,1.85,6.45c1.88-3.25,5.19-6.31,9.74-8.93,8.26-4.77,19.35-7.4,31.22-7.4s22.95,2.63,31.21,7.4c4.55,2.62,7.86,5.68,9.75,8.93a12.78,12.78,0,0,0,1.84-6.45c0-5.6-4.11-11.06-11.59-15.38-8.26-4.77-19.35-7.4-31.21-7.4s-23,2.63-31.22,7.4C218.35,367,214.23,372.45,214.23,378.05Z" style="fill: rgb(186, 104, 200); transform-origin: 257.035px 369.885px;" id="el1zj72hqqw74i" class="animable"></path><g id="elunga4axk6ao"><path d="M225.82,368.51c8.27-4.77,19.35-7.4,31.22-7.4s22.95,2.63,31.21,7.4c6.17,3.56,10,7.9,11.21,12.46-1.17,4.55-5,8.9-11.21,12.46-8.26,4.77-19.35,7.39-31.21,7.39s-23-2.62-31.22-7.39c-6.16-3.56-10-7.91-11.2-12.46C215.78,376.41,219.66,372.07,225.82,368.51Z" style="fill: rgb(255, 255, 255); opacity: 0.5; transform-origin: 257.04px 380.965px;" class="animable"></path></g><path d="M224.94,405.6a7.36,7.36,0,0,0-3.29-5.76,2.37,2.37,0,0,0-2.34-.25h0l-16,9.1h0a2.35,2.35,0,0,0-1,2.14,7.32,7.32,0,0,0,3.3,5.76,2.32,2.32,0,0,0,2.34.25h0L224,407.75h0A2.3,2.3,0,0,0,224.94,405.6Z" style="fill: rgb(55, 71, 79); transform-origin: 213.629px 408.219px;" id="eli0nmttjn6g" class="animable"></path><path d="M224,407.75a2.3,2.3,0,0,0,1-2.15,6.14,6.14,0,0,0-.56-2.48l-20.57,11.76a6.29,6.29,0,0,0,1.85,1.73,2.32,2.32,0,0,0,2.34.25L224,407.75Z" style="fill: rgb(38, 50, 56); transform-origin: 214.441px 410.093px;" id="elxti9lilwm1q" class="animable"></path><path d="M206.91,412h0c.11.18.23.35.33.54C207.12,412.37,207,412.2,206.91,412Z" id="elfxwdvwfm9w" class="animable" style="transform-origin: 207.075px 412.27px;"></path><path d="M151.93,443.76l55-31.74a8.69,8.69,0,0,0-2.84-3,3.07,3.07,0,0,0-3-.33h0l0,0L148.11,437Z" style="fill: rgb(186, 104, 200); transform-origin: 177.52px 426.101px;" id="el7ykoft0fy0c" class="animable"></path><g id="elr3ncn2ejng"><path d="M151.93,443.76l55-31.74a8.69,8.69,0,0,0-2.84-3,3.07,3.07,0,0,0-3-.33h0l0,0L148.11,437Z" style="fill: rgb(255, 255, 255); opacity: 0.6; transform-origin: 177.52px 426.101px;" class="animable"></path></g><path d="M151.93,443.76,156,451l51.07-31.59a3.05,3.05,0,0,0,1.28-2.79,8.11,8.11,0,0,0-.42-2.42c-.05-.15-.12-.31-.17-.45a11.79,11.79,0,0,0-.53-1.14c-.11-.19-.22-.36-.32-.54Z" style="fill: rgb(186, 104, 200); transform-origin: 180.147px 431.535px;" id="eltzu62cqds0l" class="animable"></path><g id="el6cc2lwxfjm9"><path d="M151.93,443.76,156,451l51.07-31.59a3.05,3.05,0,0,0,1.28-2.79,8.11,8.11,0,0,0-.42-2.42c-.05-.15-.12-.31-.17-.45a11.79,11.79,0,0,0-.53-1.14c-.11-.19-.22-.36-.32-.54Z" style="opacity: 0.05; transform-origin: 180.147px 431.535px;" class="animable"></path></g><path d="M152,450.53a12.54,12.54,0,0,1-5.63-9.84c0-3.61,2.56-5.07,5.68-3.25a12.56,12.56,0,0,1,5.63,9.84C157.67,450.89,155.13,452.35,152,450.53Z" style="fill: rgb(186, 104, 200); transform-origin: 152.025px 443.985px;" id="elgpf583rfk3j" class="animable"></path><g id="elfu662i7mq5m"><g style="opacity: 0.3; transform-origin: 152.025px 443.985px;" class="animable"><path d="M152,450.53a12.54,12.54,0,0,1-5.63-9.84c0-3.61,2.56-5.07,5.68-3.25a12.56,12.56,0,0,1,5.63,9.84C157.67,450.89,155.13,452.35,152,450.53Z" id="el1pcb9uinr3n" class="animable" style="transform-origin: 152.025px 443.985px;"></path></g></g></g></g><defs>     <filter id="active" height="200%">         <feMorphology in="SourceAlpha" result="DILATED" operator="dilate" radius="2"></feMorphology>                <feFlood flood-color="#32DFEC" flood-opacity="1" result="PINK"></feFlood>        <feComposite in="PINK" in2="DILATED" operator="in" result="OUTLINE"></feComposite>        <feMerge>            <feMergeNode in="OUTLINE"></feMergeNode>            <feMergeNode in="SourceGraphic"></feMergeNode>        </feMerge>    </filter>    <filter id="hover" height="200%">        <feMorphology in="SourceAlpha" result="DILATED" operator="dilate" radius="2"></feMorphology>                <feFlood flood-color="#ff0000" flood-opacity="0.5" result="PINK"></feFlood>        <feComposite in="PINK" in2="DILATED" operator="in" result="OUTLINE"></feComposite>        <feMerge>            <feMergeNode in="OUTLINE"></feMergeNode>            <feMergeNode in="SourceGraphic"></feMergeNode>        </feMerge>            <feColorMatrix type="matrix" values="0   0   0   0   0                0   1   0   0   0                0   0   0   0   0                0   0   0   1   0 "></feColorMatrix>    </filter></defs></svg>