<svg xmlns="http://www.w3.org/2000/svg" xmlns:xlink="http://www.w3.org/1999/xlink" width="927" height="833" viewBox="0 0 927 833">
  <defs>
    <clipPath id="clip-path">
      <path id="Path_541" data-name="Path 541" d="M0,0H900V800H0Z" transform="translate(0 16)" fill="#fff"/>
    </clipPath>
    <radialGradient id="radial-gradient" cx="0.25" cy="0.75" r="0.5" gradientTransform="translate(-0.061 0.063) rotate(90)" gradientUnits="objectBoundingBox">
      <stop offset="0" stop-color="#ced4da"/>
      <stop offset="1" stop-color="#ced4da" stop-opacity="0"/>
    </radialGradient>
    <linearGradient id="linear-gradient" x1="0.054" y1="0.206" x2="1.096" y2="0.688" gradientUnits="objectBoundingBox">
      <stop offset="0" stop-color="#00acac"/>
      <stop offset="0.995" stop-color="#8753de"/>
      <stop offset="1" stop-color="#6610f2"/>
    </linearGradient>
    <filter id="Hi_" x="371.138" y="267.396" width="121.455" height="116.318" filterUnits="userSpaceOnUse">
      <feOffset dx="8" dy="8" input="SourceAlpha"/>
      <feGaussianBlur result="blur"/>
      <feFlood flood-opacity="0.161"/>
      <feComposite operator="in" in2="blur"/>
      <feComposite in="SourceGraphic"/>
    </filter>
    <filter id="Selamat_Datang" x="303.887" y="289.08" width="317.201" height="231.81" filterUnits="userSpaceOnUse">
      <feOffset dx="8" dy="8" input="SourceAlpha"/>
      <feGaussianBlur result="blur-2"/>
      <feFlood flood-opacity="0.161"/>
      <feComposite operator="in" in2="blur-2"/>
      <feComposite in="SourceGraphic"/>
    </filter>
    <clipPath id="clip-welcome">
      <rect width="927" height="833"/>
    </clipPath>
  </defs>
  <g id="welcome" clip-path="url(#clip-welcome)">
    <rect width="927" height="833" fill="#fff"/>
    <g id="bs5-illustrations" transform="translate(14 17)" clip-path="url(#clip-path)">
      <circle id="Ellipse_24" data-name="Ellipse 24" cx="400" cy="400" r="400" transform="translate(50)" fill="url(#radial-gradient)"/>
      <path id="Path_524" data-name="Path 524" d="M138,539h98v46H138Zm100-2v50H136V537Z" fill="#ffc107" fill-rule="evenodd"/>
      <path id="Path_525" data-name="Path 525" d="M238,539h89a7,7,0,0,1,7,7v32a7,7,0,0,1-7,7H238Zm89-2a9,9,0,0,1,9,9v32a9,9,0,0,1-9,9H236V537ZM45.184,537A9.093,9.093,0,0,0,36,546v32a9.093,9.093,0,0,0,9.184,9H136V537H45.184ZM60,558a4,4,0,0,0,0,8h52a4,4,0,0,0,0-8Z" fill="#ffc107" fill-rule="evenodd"/>
      <path id="Path_526" data-name="Path 526" d="M115,400a8,8,0,1,0-8-8A8,8,0,0,0,115,400Zm0,2a10,10,0,1,0-10-10A10,10,0,0,0,115,402Zm-30,0a10,10,0,1,0-10-10A10,10,0,0,0,85,402Zm0-5a5,5,0,1,0-5-5A5,5,0,0,0,85,397Zm53-15a4,4,0,0,0-4,4v12a4,4,0,0,0,4,4h12a4,4,0,0,0,4-4V386a4,4,0,0,0-4-4Zm11.676,5.324a1.1,1.1,0,0,0-1.591.033l-5.115,6.517-3.084-3.084a1.1,1.1,0,1,0-1.562,1.563l3.9,3.9a1.1,1.1,0,0,0,1.589-.03l5.881-7.351a1.1,1.1,0,0,0-.016-1.546ZM180,384H168a2,2,0,0,0-2,2v12a2,2,0,0,0,2,2h12a2,2,0,0,0,2-2V386A2,2,0,0,0,180,384Zm-12-2a4,4,0,0,0-4,4v12a4,4,0,0,0,4,4h12a4,4,0,0,0,4-4V386a4,4,0,0,0-4-4Z" fill="#007bff" fill-rule="evenodd"/>
      <path id="Path_527" data-name="Path 527" d="M473,554a10,10,0,0,1,10-10H743a10,10,0,0,1,10,10V684.125a10,10,0,0,1-10,10H626.646A8,8,0,0,0,621,696.453l-6.595,6.555a2,2,0,0,1-2.82,0l-6.6-6.556a7.994,7.994,0,0,0-5.64-2.327H483a10,10,0,0,1-10-10Zm10-8a8,8,0,0,0-8,8v29H751V554a8,8,0,0,0-8-8Zm268,39H475v99.125a8,8,0,0,0,8,8H599.354a10,10,0,0,1,7.05,2.908l6.6,6.557,6.6-6.557a10,10,0,0,1,7.05-2.908H743a8,8,0,0,0,8-8Z" fill="#adb5bd" fill-rule="evenodd"/>
      <path id="Path_528" data-name="Path 528" d="M503,74a10,10,0,0,1,10-10H773a10,10,0,0,1,10,10V234a10,10,0,0,1-10,10H513a10,10,0,0,1-10-10Zm10-8a8,8,0,0,0-8,8v29H781V74a8,8,0,0,0-8-8Zm268,39H505v97H781Zm0,99H644v38H773a8,8,0,0,0,8-8ZM642,242V204H505v30a8,8,0,0,0,8,8Z" fill="#007bff" fill-rule="evenodd"/>
      <path id="Path_529" data-name="Path 529" d="M756.293,79.293a1,1,0,0,1,1.414,0L762,83.586l4.293-4.293a1,1,0,1,1,1.414,1.414L763.414,85l4.293,4.293a1,1,0,1,1-1.414,1.414L762,86.414l-4.293,4.293a1,1,0,1,1-1.414-1.414L760.586,85l-4.293-4.293a1,1,0,0,1,0-1.414Z" fill="#007bff" fill-rule="evenodd"/>
      <path id="Path_530" data-name="Path 530" d="M673,223a4,4,0,0,1,4-4h72a4,4,0,0,1,0,8H677A4,4,0,0,1,673,223Zm-140,0a4,4,0,0,1,4-4h72a4,4,0,0,1,0,8H537A4,4,0,0,1,533,223Z" fill="#007bff"/>
      <path id="Path_531" data-name="Path 531" d="M757,432H475a7,7,0,0,0-7,7v32a7,7,0,0,0,7,7H757a7,7,0,0,0,7-7V439A7,7,0,0,0,757,432Zm-282-2a9,9,0,0,0-9,9v32a9,9,0,0,0,9,9H757a9,9,0,0,0,9-9V439a9,9,0,0,0-9-9Zm310,0a9,9,0,0,0-9,9v32a9,9,0,0,0,9,9h72a9,9,0,0,0,9-9V439a9,9,0,0,0-9-9Zm10,21a4,4,0,0,0,0,8h52a4,4,0,0,0,0-8Z" fill="#e83e8c" fill-rule="evenodd"/>
      <path id="Path_532" data-name="Path 532" d="M825,336H541a6,6,0,0,0,0,12H825a6,6,0,0,0,0-12Zm-284-2a8,8,0,0,0,0,16H825a8,8,0,0,0,0-16Z" fill="#dc3545" fill-rule="evenodd"/>
      <path id="Path_533" data-name="Path 533" d="M533,342a8,8,0,0,1,8-8H783v16H541A8,8,0,0,1,533,342Z" fill="#dc3545"/>
      <path id="Path_534" data-name="Path 534" d="M57,271a6,6,0,0,0-6,6v28a6,6,0,0,0,6,6h81.515a6,6,0,0,1,4.242,1.757l7.536,7.536a1,1,0,0,0,1.414,0l7.536-7.536A6,6,0,0,1,163.485,311H245a6,6,0,0,0,6-6V277a6,6,0,0,0-6-6Zm33,16a4,4,0,0,0,0,8H212a4,4,0,0,0,0-8Z" fill="#adb5bd" fill-rule="evenodd"/>
      <path id="Path_535" data-name="Path 535" d="M253,157a10,10,0,0,0-10-10H141a10,10,0,0,0-10,10v39a1,1,0,0,0,2,0V157a8,8,0,0,1,8-8H243a8,8,0,0,1,8,8v39a1,1,0,0,0,1,1H450a1,1,0,0,0,0-2H253Z" fill="#20c997" fill-rule="evenodd"/>
      <path id="Path_536" data-name="Path 536" d="M151,174a4,4,0,0,1,4-4h72a4,4,0,0,1,0,8H155A4,4,0,0,1,151,174Z" fill="#20c997"/>
      <path id="Path_537" data-name="Path 537" d="M202.606,300.6c-8.615-28.187,6.531-60.366,36.506-68.4l309.643-82.969c29.975-8.031,59.181,12.264,65.814,40.982,6.371,27.588,17.095,62.662,33.744,89.141,16.7,26.562,36.732,40.854,62.058,36.589l7.125,26.591c-24.065,8.969-34.268,31.362-35.45,62.716-1.178,31.256,7.072,66.993,15.348,94.07,8.615,28.187-6.531,60.366-36.506,68.4L351.245,650.692c-29.975,8.031-59.181-12.264-65.814-40.982-6.371-27.587-17.1-62.661-33.744-89.141-16.7-26.562-36.732-40.854-62.058-36.588L182.5,457.389c24.065-8.969,34.268-31.362,35.45-62.715,1.178-31.257-7.072-66.994-15.348-94.071Z" fill-rule="evenodd" fill="url(#linear-gradient)"/>
      <path id="Path_538" data-name="Path 538" d="M239.37,233.171c-29.369,7.87-44.275,39.435-35.808,67.14,8.286,27.109,16.576,62.974,15.391,94.4-1.175,31.158-11.239,53.906-35.25,63.291l6.659,24.848c25.486-3.877,45.576,10.791,62.172,37.187,16.739,26.623,27.493,61.828,33.872,89.448,6.519,28.227,35.21,48.11,64.58,40.241L660.63,566.757c29.369-7.87,44.275-39.435,35.807-67.139-8.285-27.11-16.575-62.975-15.39-94.4,1.175-31.158,11.239-53.906,35.25-63.29l-6.659-24.849c-25.486,3.877-45.576-10.791-62.172-37.186-16.739-26.624-27.493-61.829-33.872-89.449-6.519-28.227-35.21-48.11-64.58-40.241Zm471,82.777c-25.326,4.265-45.358-10.027-62.058-36.589-16.649-26.479-27.373-61.553-33.744-89.141-6.633-28.718-35.839-49.013-65.814-40.982L239.112,232.205c-29.975,8.032-45.121,40.211-36.506,68.4,8.276,27.077,16.526,62.814,15.348,94.071-1.182,31.353-11.385,53.746-35.45,62.715l7.125,26.592c25.326-4.266,45.358,10.026,62.058,36.588,16.649,26.479,27.373,61.554,33.744,89.141,6.633,28.718,35.839,49.013,65.814,40.982l309.643-82.969c29.975-8.032,45.121-40.211,36.506-68.4-8.276-27.077-16.526-62.814-15.348-94.07,1.182-31.354,11.385-53.747,35.45-62.716l-7.125-26.591Z" fill="rgba(0,0,0,0.15)" fill-rule="evenodd"/>
      <g id="Group_298" data-name="Group 298" transform="translate(-10.709 47.102) rotate(-3)">
        <g transform="matrix(1, 0.05, -0.05, 1, 0.07, -64.19)" filter="url(#Hi_)">
          <text id="Hi_2" data-name="Hi!" transform="translate(390.61 355.74) rotate(-18)" fill="#fff" font-size="60" font-family="Poppins-BlackItalic, Poppins" font-weight="800" font-style="italic"><tspan x="0" y="0">Hi!</tspan></text>
        </g>
        <g transform="matrix(1, 0.05, -0.05, 1, 0.07, -64.19)" filter="url(#Selamat_Datang)">
          <text id="Selamat_Datang-2" data-name="Selamat
Datang" transform="translate(456.17 393.85) rotate(-18)" fill="#fff" font-size="62" font-family="Poppins-BlackItalic, Poppins" font-weight="800" font-style="italic"><tspan x="-138.012" y="0">Selamat</tspan><tspan x="-121.396" y="58">Datang</tspan></text>
        </g>
      </g>
      <text id="_Anda_berhasil_masuk_ke_Aplikasi_" data-name="&quot;Anda berhasil masuk ke Aplikasi!" transform="translate(482 503) rotate(-15)" fill="#fff" font-size="20" font-family="Poppins-MediumItalic, Poppins" font-weight="500" font-style="italic"><tspan x="-170.46" y="0">&quot;Anda Berhasil Masuk Ke Aplikasi!</tspan></text>
      <text id="By_HELLOSID" data-name="By HELLOSID" transform="translate(516 589) rotate(-15)" fill="#fff" font-size="18" font-family="Poppins-MediumItalic, Poppins" font-weight="500" font-style="italic"><tspan x="-51.679" y="0">By </tspan><tspan y="0" font-family="Poppins-BoldItalic, Poppins" font-weight="700">HELLOS</tspan><tspan y="0" font-size="10.499" font-family="Poppins-BoldItalic, Poppins" font-weight="700" baseline-shift="5.999400079342301">ID</tspan></text>
    </g>
  </g>
</svg>
